<?xml version="1.0" encoding="utf-8"?>
<!-- Generator: Adobe Illustrator 27.5.0, SVG Export Plug-In . SVG Version: 6.00 Build 0)  -->
<svg version="1.1" xmlns="http://www.w3.org/2000/svg" xmlns:xlink="http://www.w3.org/1999/xlink" x="0px" y="0px"
	 viewBox="0 0 500 500" style="enable-background:new 0 0 500 500;" xml:space="preserve">
<g id="Background_Complete">
	<g>
		<g>
			<g>
				<g>
					<g>
						<path style="fill:#F5F5F5;" d="M79.331,446.547c-1.356-1.163-4.38-4.846-2.048-9.131c0.855-1.571,2.671-2.348,4.315-3.04
							c1.644-0.692,3.371-1.294,4.731-2.451c2.565-2.182,3.273-5.808,4.975-8.719c1.955-3.342,5.603-5.846,9.458-5.67
							c4.414,0.201,8.096,3.806,9.764,7.917c1.669,4.111,1.727,8.675,1.762,13.114c0.019,2.454-0.09,5.222-1.892,6.879
							c-1.661,1.529-4.163,1.547-6.415,1.478c-8.041-0.247-16.082-0.494-24.123-0.741"/>
					</g>
				</g>
			</g>
		</g>
		<g>
			<g>
				<g>
					<g>
						<g>
							<path style="fill:#E0E0E0;" d="M125.468,380.213H62.029l11.428,68.14c0.5,2.976,2.653,5.27,5.416,6.066
								c0.073,0.023,0.148,0.04,0.222,0.061c0.189,0.048,0.371,0.112,0.565,0.146c0.418,0.087,0.851,0.131,1.29,0.148
								c0.003,0.021,0.007,0.044,0.01,0.065l0.309-0.049c0.001,0,0.002,0,0.002,0h28.274c0.532,0,1.051-0.055,1.554-0.155
								c3.339-0.516,6.011-3.196,6.418-6.66l5.509-46.95l0.249-1.867h-0.029l2.182-18.593L125.468,380.213z M113.501,423.678h-6.51
								l0.657-19.776h7.543L113.501,423.678z M115.822,403.902h6.233l-2.321,19.776h-5.602L115.822,403.902z M97.223,445.601
								l-0.396-17.18h9.375l-0.571,17.18H97.223z M87.087,428.421h9.11l0.396,17.18h-8.17L87.087,428.421z M87.791,445.601h-7.638
								c-0.726-4.638-1.67-10.667-2.693-17.18h8.995L87.791,445.601z M86.719,423.678l-1.537-19.776h10.451l0.455,19.776H86.719z
								 M96.718,423.678l-0.455-19.776h10.754l-0.657,19.776H96.718z M96.153,399.16l-0.422-18.314h12.051l-0.608,18.314H96.153z
								 M95.523,399.16h-10.71l-1.423-18.314h11.711L95.523,399.16z M84.182,399.16H72.851c-0.401-2.529-0.782-4.924-1.125-7.078
								c-1.182-7.405-1.627-10.189-1.873-11.236h12.906L84.182,399.16z M84.551,403.902l1.537,19.776h-9.371
								c-0.315-2.007-0.634-4.036-0.954-6.068c-0.734-4.668-1.47-9.335-2.161-13.708H84.551z M76.079,423.678h-6.122l-3.317-19.776
								h6.323C73.93,410.014,75.001,416.816,76.079,423.678z M76.824,428.421c0.933,5.945,1.852,11.807,2.692,17.18h-5.882
								l-2.881-17.18H76.824z M106.262,445.601l0.571-17.18h6.263l-1.468,17.18H106.262z M107.805,399.16l0.608-18.314h8.747
								l-1.565,18.314H107.805z M69.252,380.846c0.251,1.324,1.409,8.53,2.96,18.314h-6.368l-3.072-18.314H69.252z M117.162,445.601
								h-4.903l1.468-17.18h5.451L117.162,445.601z M122.611,399.16h-6.384l1.565-18.314h6.968L122.611,399.16z"/>
						</g>
					</g>
				</g>
			</g>
		</g>
	</g>
	<g>
		<g>
			<g>
				<g>
					<g>
						<path style="fill:#E0E0E0;" d="M56.043,236.191c1.97-1.19,4.067-2.093,6.23-2.708l1.283-6.167l10.419-0.183l1.499,6.117
							c2.183,0.538,4.311,1.366,6.322,2.487l5.265-3.452l7.496,7.238l-3.264,5.382c1.191,1.971,2.093,4.068,2.707,6.231l6.166,1.283
							l0.183,10.419l-6.117,1.5c-0.538,2.183-1.366,4.31-2.487,6.321l3.451,5.266l-7.237,7.497l-5.383-3.264
							c-1.97,1.191-4.068,2.093-6.231,2.707l-1.284,6.167l-10.418,0.183l-1.5-6.117c-2.183-0.538-4.311-1.367-6.321-2.487
							l-5.265,3.452l-7.496-7.238l3.264-5.383c-1.19-1.97-2.093-4.067-2.708-6.231l-6.166-1.283l-0.183-10.418l6.117-1.5
							c0.538-2.183,1.367-4.31,2.487-6.321l-3.451-5.266l7.237-7.496L56.043,236.191L56.043,236.191z M61.597,250.07
							c-4.288,4.442-4.164,11.518,0.278,15.806c4.441,4.288,11.518,4.163,15.806-0.278c4.288-4.441,4.164-11.518-0.278-15.806
							C72.961,245.505,65.885,245.629,61.597,250.07z"/>
					</g>
				</g>
			</g>
		</g>
	</g>
	<g>
		<g>
			<g>
				<rect x="27.443" y="43.157" style="fill:#FFFFFF;" width="254.42" height="208.415"/>
			</g>
			<g>
				<g>
					<path style="fill:#E0E0E0;" d="M281.864,251.573c-0.002-1.817-0.086-82.815-0.217-208.415l0.217,0.217
						c-72.804,0.012-160.326,0.027-254.398,0.043h-0.022l0.26-0.26c-0.01,75.394-0.02,146.571-0.028,208.415l-0.232-0.232
						C178.802,251.479,279.836,251.571,281.864,251.573c-2.026,0.002-103.061,0.094-254.42,0.232l-0.232,0v-0.232
						c-0.008-61.844-0.018-133.021-0.028-208.415v-0.26h0.26h0.022c94.072,0.016,181.594,0.031,254.398,0.043l0.218,0l0,0.217
						C281.95,168.757,281.865,249.757,281.864,251.573z"/>
				</g>
			</g>
		</g>
		<g>
			<g>
				<path style="fill:#E0E0E0;" d="M230.043,61.028c0,0.144-45.357,0.26-101.295,0.26c-55.957,0-101.305-0.117-101.305-0.26
					c0-0.144,45.347-0.26,101.305-0.26C184.686,60.767,230.043,60.884,230.043,61.028z"/>
			</g>
		</g>
		<g>
			<path style="fill:#E0E0E0;" d="M39.506,52.414c0,1.518-1.231,2.748-2.748,2.748s-2.748-1.231-2.748-2.748
				c0-1.518,1.231-2.749,2.748-2.749S39.506,50.896,39.506,52.414z"/>
		</g>
		<g>
			<path style="fill:#E0E0E0;" d="M47.516,52.414c0,1.518-1.23,2.748-2.748,2.748c-1.518,0-2.748-1.231-2.748-2.748
				c0-1.518,1.23-2.749,2.748-2.749C46.285,49.666,47.516,50.896,47.516,52.414z"/>
		</g>
		<g>
			<path style="fill:#E0E0E0;" d="M55.526,52.414c0,1.518-1.231,2.748-2.748,2.748s-2.748-1.231-2.748-2.748
				c0-1.518,1.23-2.749,2.748-2.749S55.526,50.896,55.526,52.414z"/>
		</g>
		<g>
			<rect x="27.443" y="61.028" style="fill:#E0E0E0;" width="254.42" height="21.48"/>
		</g>
		<g>
			<rect x="27.833" y="94.956" style="fill:#EBEBEB;" width="254.031" height="70.593"/>
		</g>
		<g>
			<g>
				<path style="fill:#E0E0E0;" d="M279.572,177.696c0,0.144-54.441,0.26-121.581,0.26c-67.164,0-121.593-0.117-121.593-0.26
					s54.429-0.26,121.593-0.26C225.131,177.436,279.572,177.552,279.572,177.696z"/>
			</g>
		</g>
		<g>
			<g>
				<path style="fill:#E0E0E0;" d="M279.572,184.176c0,0.144-54.441,0.261-121.581,0.261c-67.164,0-121.593-0.117-121.593-0.261
					c0-0.144,54.429-0.26,121.593-0.26C225.131,183.916,279.572,184.033,279.572,184.176z"/>
			</g>
		</g>
		<g>
			<g>
				<path style="fill:#E0E0E0;" d="M131.195,216.961c0,0.144-20.792,0.26-46.434,0.26c-25.651,0-46.438-0.117-46.438-0.26
					c0-0.144,20.787-0.26,46.438-0.26C110.403,216.701,131.195,216.818,131.195,216.961z"/>
			</g>
		</g>
		<g>
			<g>
				<path style="fill:#E0E0E0;" d="M131.195,223.442c0,0.144-20.792,0.26-46.434,0.26c-25.651,0-46.438-0.117-46.438-0.26
					s20.787-0.26,46.438-0.26C110.403,223.181,131.195,223.298,131.195,223.442z"/>
			</g>
		</g>
		<g>
			<g>
				<path style="fill:#E0E0E0;" d="M131.195,229.922c0,0.144-20.792,0.26-46.434,0.26c-25.651,0-46.438-0.117-46.438-0.26
					c0-0.144,20.787-0.26,46.438-0.26C110.403,229.662,131.195,229.778,131.195,229.922z"/>
			</g>
		</g>
		<g>
			<g>
				<path style="fill:#E0E0E0;" d="M131.195,236.689c0,0.144-20.792,0.26-46.434,0.26c-25.651,0-46.438-0.117-46.438-0.26
					s20.787-0.26,46.438-0.26C110.403,236.429,131.195,236.546,131.195,236.689z"/>
			</g>
		</g>
		<g>
			
				<ellipse transform="matrix(0.1615 -0.9869 0.9869 0.1615 -163.0531 219.3064)" style="fill:#EBEBEB;" cx="47.526" cy="205.603" rx="7.278" ry="7.278"/>
		</g>
		<g>
			<g>
				<path style="fill:#E0E0E0;" d="M86.232,207.281c0,0.144-5.564,0.26-12.427,0.26c-6.865,0-12.428-0.117-12.428-0.26
					s5.563-0.26,12.428-0.26C80.668,207.021,86.232,207.138,86.232,207.281z"/>
			</g>
		</g>
		<g>
			<g>
				<path style="fill:#E0E0E0;" d="M254.913,213.972c0,0.144-19.035,0.26-42.511,0.26c-23.484,0-42.515-0.117-42.515-0.26
					c0-0.144,19.031-0.26,42.515-0.26C235.878,213.712,254.913,213.828,254.913,213.972z"/>
			</g>
		</g>
		<g>
			<g>
				<path style="fill:#E0E0E0;" d="M254.913,220.452c0,0.144-19.035,0.26-42.511,0.26c-23.484,0-42.515-0.117-42.515-0.26
					s19.031-0.26,42.515-0.26C235.878,220.192,254.913,220.308,254.913,220.452z"/>
			</g>
		</g>
		<g>
			<g>
				<path style="fill:#E0E0E0;" d="M254.913,226.932c0,0.144-19.035,0.26-42.511,0.26c-23.484,0-42.515-0.117-42.515-0.26
					c0-0.144,19.031-0.26,42.515-0.26C235.878,226.672,254.913,226.789,254.913,226.932z"/>
			</g>
		</g>
		<g>
			<g>
				<path style="fill:#E0E0E0;" d="M254.913,233.7c0,0.144-19.035,0.26-42.511,0.26c-23.484,0-42.515-0.117-42.515-0.26
					s19.031-0.26,42.515-0.26C235.878,233.439,254.913,233.556,254.913,233.7z"/>
			</g>
		</g>
		<g>
			
				<ellipse transform="matrix(0.2305 -0.9731 0.9731 0.2305 -59.3442 330.1852)" style="fill:#EBEBEB;" cx="179.09" cy="202.613" rx="7.278" ry="7.278"/>
		</g>
		<g>
			<g>
				<path style="fill:#E0E0E0;" d="M217.796,204.292c0,0.144-5.564,0.26-12.427,0.26c-6.865,0-12.428-0.117-12.428-0.26
					c0-0.144,5.563-0.26,12.428-0.26C212.232,204.032,217.796,204.148,217.796,204.292z"/>
			</g>
		</g>
		<g>
			<g>
				<g>
					<path style="fill:#FFFFFF;" d="M189.279,163.999c-0.013,0.01-0.129-0.105-0.344-0.341c-0.246-0.28-0.554-0.629-0.936-1.062
						c-0.853-1.001-2.032-2.385-3.528-4.14c-3.08-3.678-7.456-8.904-12.842-15.337c-5.41-6.514-11.83-14.245-18.954-22.823
						c-0.906-1.09-1.726-2.179-2.875-2.906c-1.122-0.762-2.479-1.168-3.854-1.25c-1.381-0.075-2.784,0.267-4.029,0.921
						c-1.249,0.659-2.19,1.788-3.319,2.834c-4.373,4.222-8.9,8.592-13.537,13.068c-3.295,3.175-6.535,6.297-9.619,9.27l-0.274,0.264
						l-0.311-0.219c-4.623-3.262-9.112-6.429-13.428-9.474c-1.078-0.762-2.146-1.516-3.202-2.262
						c-1.08-0.745-2.049-1.56-3.178-1.936c-2.247-0.876-4.807-0.544-6.75,0.653c-0.985,0.593-1.737,1.441-2.551,2.307
						c-0.802,0.851-1.593,1.689-2.372,2.515c-1.558,1.65-3.067,3.248-4.525,4.792c-2.913,3.079-5.619,5.938-8.087,8.546
						c-4.907,5.149-8.862,9.3-11.646,12.221c-1.341,1.381-2.399,2.47-3.17,3.264c-0.338,0.336-0.613,0.609-0.837,0.831
						c-0.192,0.184-0.295,0.273-0.306,0.263c-0.011-0.01,0.071-0.119,0.242-0.322c0.208-0.238,0.462-0.53,0.775-0.889
						c0.743-0.821,1.761-1.947,3.053-3.374c2.735-2.967,6.621-7.183,11.442-12.412c2.443-2.632,5.121-5.517,8.005-8.623
						c1.447-1.555,2.944-3.164,4.49-4.825c0.774-0.831,1.559-1.674,2.356-2.53c0.778-0.837,1.614-1.795,2.701-2.457
						c2.137-1.336,4.976-1.719,7.478-0.758c0.624,0.22,1.227,0.546,1.786,0.908l1.581,1.108c1.06,0.743,2.131,1.494,3.212,2.252
						c4.327,3.038,8.826,6.196,13.461,9.449l-0.585,0.045c3.08-2.973,6.315-6.094,9.605-9.269c4.638-4.468,9.165-8.83,13.54-13.044
						c1.095-1.005,2.124-2.239,3.539-2.988c1.391-0.73,2.962-1.104,4.502-1.017c1.534,0.094,3.045,0.557,4.291,1.407
						c1.285,0.822,2.19,2.041,3.057,3.091c7.066,8.626,13.434,16.399,18.801,22.95c5.291,6.512,9.589,11.802,12.614,15.525
						c1.439,1.802,2.573,3.224,3.393,4.251c0.353,0.457,0.637,0.826,0.865,1.121C189.2,163.853,189.291,163.989,189.279,163.999z"/>
				</g>
			</g>
		</g>
		<g>
			<g>
				<g>
					<path style="fill:#FFFFFF;" d="M121.991,113.386c-0.08,0.004-0.055-0.777-0.417-2.093c-0.358-1.291-1.244-3.178-3.191-4.625
						c-1.882-1.451-4.975-2.26-7.964-1.143c-2.964,1.025-5.522,4.179-5.489,7.859c-0.034,3.682,2.524,6.837,5.489,7.862
						c2.99,1.117,6.083,0.308,7.965-1.143c1.947-1.447,2.833-3.333,3.191-4.624C121.936,114.163,121.911,113.382,121.991,113.386
						c0.026,0,0.042,0.191,0.049,0.561c0.013,0.368-0.028,0.917-0.177,1.605c-0.281,1.357-1.124,3.383-3.152,4.981
						c-1.957,1.6-5.273,2.548-8.531,1.375c-1.604-0.561-3.14-1.641-4.234-3.146c-1.124-1.485-1.762-3.403-1.778-5.377
						c0.016-1.973,0.654-3.891,1.778-5.375c1.094-1.504,2.63-2.584,4.234-3.145c3.257-1.173,6.573-0.225,8.531,1.375
						c2.027,1.597,2.871,3.624,3.152,4.981c0.15,0.688,0.191,1.237,0.178,1.605C122.033,113.195,122.017,113.386,121.991,113.386z"
						/>
				</g>
			</g>
		</g>
	</g>
	<g>
		<g>
			<g>
				<path style="fill:#F5F5F5;" d="M402.582,56.43c1.212-0.733,2.503-1.288,3.834-1.666l0.79-3.795l6.411-0.112l0.923,3.764
					c1.344,0.331,2.653,0.841,3.89,1.53l3.24-2.124l4.613,4.454l-2.008,3.312c0.733,1.213,1.288,2.504,1.666,3.835l3.794,0.79
					l0.113,6.411l-3.764,0.923c-0.331,1.343-0.841,2.652-1.53,3.89l2.124,3.241l-4.454,4.613l-3.313-2.009
					c-1.212,0.733-2.503,1.288-3.834,1.666l-0.79,3.795l-6.411,0.112l-0.923-3.765c-1.343-0.331-2.652-0.841-3.89-1.53l-3.24,2.124
					l-4.613-4.454l2.009-3.313c-0.733-1.212-1.288-2.503-1.666-3.834l-3.795-0.79l-0.112-6.411l3.764-0.923
					c0.331-1.343,0.841-2.653,1.53-3.89l-2.124-3.24l4.454-4.613L402.582,56.43L402.582,56.43z M406,64.971
					c-2.639,2.733-2.562,7.088,0.171,9.727c2.733,2.639,7.088,2.562,9.726-0.171c2.639-2.733,2.562-7.088-0.171-9.727
					C412.993,62.162,408.639,62.238,406,64.971z"/>
			</g>
		</g>
	</g>
	<g>
		<g>
			<g>
				<g>
					<g>
						<g>
							<path style="fill:#EBEBEB;" d="M424.814,363.896c-0.073-12.825-8.463-21.023-8.463-21.023
								C413.791,353.422,424.814,363.896,424.814,363.896z"/>
						</g>
					</g>
				</g>
				<g>
					<g>
						<g>
							<path style="fill:#EBEBEB;" d="M412.526,357.946c-11.789-5.048-22.653-0.627-22.653-0.627
								C398.523,363.873,412.526,357.946,412.526,357.946z"/>
						</g>
					</g>
				</g>
				<g>
					<g>
						<g>
							<path style="fill:#EBEBEB;" d="M411.128,351.109c2.049-9.911-3.081-17.608-3.081-17.608
								C404.338,341.229,411.128,351.109,411.128,351.109z"/>
						</g>
					</g>
				</g>
				<g>
					<g>
						<g>
							<path style="fill:#EBEBEB;" d="M458.641,326.449c-17.961,4.781-27.595,20.397-27.595,20.397
								C446.397,346.856,458.641,326.449,458.641,326.449z"/>
						</g>
					</g>
				</g>
				<g>
					<g>
						<g>
							<path style="fill:#EBEBEB;" d="M429.955,333.809c0.933-19.359-17.987-41.27-17.987-41.27
								C414.824,316.577,429.955,333.809,429.955,333.809"/>
						</g>
					</g>
				</g>
				<g>
					<g>
						<g>
							<path style="fill:#EBEBEB;" d="M430.048,278.674c-0.803,15.701,6.803,27.73,6.803,27.73
								C439.523,293.952,430.048,278.674,430.048,278.674z"/>
						</g>
					</g>
				</g>
				<g>
					<g>
						<g>
							<path style="fill:#EBEBEB;" d="M437.343,318.006c14.154-1.519,21.854-15.601,21.854-15.601
								C442.08,307.201,437.343,318.006,437.343,318.006z"/>
						</g>
					</g>
				</g>
				<g>
					<g>
						<g>
							<path style="fill:#EBEBEB;" d="M467.873,377.193c-10.817-6.892-22.254-4.286-22.254-4.286
								C453.094,380.774,467.873,377.193,467.873,377.193z"/>
						</g>
					</g>
				</g>
				<g>
					<g>
						<g>
							<path style="fill:#EBEBEB;" d="M431.195,383.547c2.684,7.399,9.511,10.715,9.511,10.715
								C440.1,387.73,431.195,383.547,431.195,383.547z"/>
						</g>
					</g>
				</g>
				<g>
					<g>
						<g>
							<path style="fill:#EBEBEB;" d="M433.015,381.463c8.051,4.956,16.928,3.021,16.928,3.021
								C444.493,378.805,433.015,381.463,433.015,381.463z"/>
						</g>
					</g>
				</g>
				<g>
					<g>
						<g>
							<g>
								<path style="fill:#E0E0E0;" d="M425.778,407.523c0.011,0,0.02-0.098,0.028-0.288c0.005-0.228,0.011-0.506,0.018-0.845
									c0.002-0.795,0.004-1.878,0.007-3.244c-0.013-1.408-0.014-3.131,0.029-5.131c0.032-2,0.037-4.277,0.143-6.793
									c0.122-5.033,0.479-11.018,0.993-17.653c0.576-6.63,1.38-13.904,2.489-21.503c2.237-15.205,5.293-28.793,7.75-38.556
									c1.237-4.88,2.281-8.821,3.043-11.532c0.356-1.319,0.638-2.364,0.845-3.132c0.082-0.329,0.149-0.598,0.204-0.819
									c0.043-0.186,0.059-0.282,0.049-0.285c-0.01-0.003-0.048,0.087-0.111,0.267c-0.072,0.217-0.159,0.48-0.265,0.801
									c-0.235,0.76-0.556,1.794-0.96,3.1c-0.835,2.692-1.946,6.617-3.24,11.489c-2.571,9.744-5.702,23.342-7.943,38.575
									c-1.111,7.614-1.899,14.904-2.444,21.548c-0.483,6.649-0.795,12.647-0.859,17.689c-0.078,2.52-0.051,4.801-0.05,6.803
									c-0.009,2.003,0.028,3.727,0.079,5.136c0.047,1.366,0.085,2.449,0.113,3.244c0.018,0.338,0.033,0.615,0.045,0.843
									C425.755,407.426,425.767,407.523,425.778,407.523z"/>
							</g>
						</g>
					</g>
				</g>
				<g>
					<g>
						<g>
							<g>
								<path style="fill:#E0E0E0;" d="M451.756,366.545c-0.099-0.145-5.82,3.604-12.777,8.373
									c-6.959,4.77-12.518,8.753-12.419,8.898c0.099,0.145,5.819-3.604,12.778-8.374
									C446.295,370.673,451.855,366.689,451.756,366.545z"/>
							</g>
						</g>
					</g>
				</g>
				<g>
					<g>
						<g>
							<g>
								<path style="fill:#E0E0E0;" d="M426.56,368.607c0.029-0.033-0.286-0.373-0.879-0.961c-0.703-0.677-1.552-1.495-2.548-2.454
									c-2.292-2.15-5.243-4.918-8.507-7.979c-3.265-3.061-6.216-5.828-8.508-7.977c-1.008-0.945-1.867-1.751-2.578-2.418
									c-0.614-0.566-0.969-0.865-1-0.834c-0.031,0.031,0.264,0.388,0.825,1.008c0.558,0.624,1.396,1.495,2.44,2.565
									c2.094,2.132,5.057,5.008,8.388,8.12c3.33,3.112,6.393,5.876,8.638,7.847c1.122,0.986,2.04,1.773,2.684,2.305
									C426.16,368.362,426.531,368.64,426.56,368.607z"/>
							</g>
						</g>
					</g>
				</g>
				<g>
					<g>
						<g>
							<path style="fill:#EBEBEB;" d="M469.928,357.37c0,0-14.627-0.279-20.814,11.235
								C449.114,368.605,461.591,369.016,469.928,357.37z"/>
						</g>
					</g>
				</g>
				<g>
					<g>
						<g>
							<path style="fill:#EBEBEB;" d="M449.951,351.499c0,0-11.911,8.495-10.015,21.428
								C439.936,372.927,450.199,365.819,449.951,351.499z"/>
						</g>
					</g>
				</g>
				<g>
					<g>
						<g>
							<path style="fill:#EBEBEB;" d="M387.217,330.566c0,0,4.699,16.374,19.632,19.316
								C406.85,349.882,403.033,335.855,387.217,330.566z"/>
						</g>
					</g>
				</g>
				<g>
					<g>
						<g>
							<path style="fill:#EBEBEB;" d="M456.448,269.694c0,0-18.662,12.173-16.596,31.973
								C439.852,301.667,455.919,291.5,456.448,269.694z"/>
						</g>
					</g>
				</g>
			</g>
			<g>
				<g>
					<g>
						<g>
							<path style="fill:#E0E0E0;" d="M394.337,377.972c-0.024,0.037,0.409,0.381,1.212,0.972c0.807,0.583,1.956,1.454,3.348,2.559
								c2.788,2.206,6.478,5.464,10.106,9.494c3.62,4.04,6.464,8.059,8.359,11.066c0.95,1.503,1.692,2.738,2.186,3.603
								c0.501,0.861,0.797,1.328,0.836,1.309s-0.183-0.526-0.619-1.426c-0.428-0.904-1.114-2.178-2.02-3.72
								c-1.807-3.085-4.618-7.182-8.269-11.256c-3.658-4.065-7.43-7.299-10.304-9.426c-1.436-1.066-2.63-1.885-3.482-2.408
								C394.84,378.21,394.361,377.936,394.337,377.972z"/>
						</g>
					</g>
				</g>
			</g>
			<g>
				<g>
					<g>
						<path style="fill:#EBEBEB;" d="M410.576,390.131c2.38-12.602-4.285-22.253-4.285-22.253
							C404.285,381.754,410.576,390.131,410.576,390.131z"/>
					</g>
				</g>
			</g>
			<g>
				<g>
					<g>
						<path style="fill:#EBEBEB;" d="M398.018,383.285c-8.046-4.721-16.29-2.525-16.29-2.525
							C390.739,385.538,398.018,383.285,398.018,383.285z"/>
					</g>
				</g>
			</g>
		</g>
		<g>
			<g>
				<g>
					<g>
						<g>
							<polygon style="fill:#EBEBEB;" points="452.988,409.046 445.987,455.059 405.309,455.059 395.867,409.711 							"/>
						</g>
					</g>
				</g>
			</g>
			<g>
				<g>
					<g>
						<g>
							<g>
								<g>
									<path style="fill:#FAFAFA;" d="M401.555,438.535c0,0.132,10.423,0.239,23.278,0.239c12.859,0,23.281-0.107,23.281-0.239
										c0-0.132-10.421-0.239-23.281-0.239C411.978,438.297,401.555,438.403,401.555,438.535z"/>
								</g>
							</g>
						</g>
					</g>
				</g>
				<g>
					<g>
						<g>
							<g>
								<g>
									<path style="fill:#FAFAFA;" d="M401.397,436.272c0,0.132,10.494,0.239,23.436,0.239c12.947,0,23.438-0.107,23.438-0.239
										c0-0.132-10.492-0.239-23.438-0.239C411.891,436.034,401.397,436.141,401.397,436.272z"/>
								</g>
							</g>
						</g>
					</g>
				</g>
				<g>
					<g>
						<g>
							<g>
								<g>
									<path style="fill:#FAFAFA;" d="M401.477,433.716c0,0.132,10.494,0.239,23.436,0.239c12.947,0,23.438-0.107,23.438-0.239
										s-10.492-0.239-23.438-0.239C411.972,433.478,401.477,433.585,401.477,433.716z"/>
								</g>
							</g>
						</g>
					</g>
				</g>
				<g>
					<g>
						<g>
							<g>
								<g>
									<path style="fill:#FAFAFA;" d="M441.314,452.433c0.13,0.023,0.689-2.571,1.248-5.793c0.559-3.223,0.907-5.853,0.777-5.875
										c-0.13-0.023-0.689,2.571-1.248,5.794C441.532,449.78,441.184,452.411,441.314,452.433z"/>
								</g>
							</g>
						</g>
					</g>
				</g>
				<g>
					<g>
						<g>
							<g>
								<g>
									<path style="fill:#FAFAFA;" d="M438.547,451.944c0.135,0.003,0.29-2.532,0.504-5.652c0.21-3.122,0.4-5.654,0.265-5.669
										c-0.128-0.015-0.53,2.502-0.742,5.637C438.36,449.393,438.418,451.943,438.547,451.944z"/>
								</g>
							</g>
						</g>
					</g>
				</g>
				<g>
					<g>
						<g>
							<g>
								<g>
									<path style="fill:#FAFAFA;" d="M433.504,451.943c0.126,0.022,0.682-2.561,1.058-5.796c0.381-3.234,0.438-5.876,0.31-5.884
										c-0.135-0.009-0.404,2.608-0.784,5.828C433.713,449.311,433.37,451.92,433.504,451.943z"/>
								</g>
							</g>
						</g>
					</g>
				</g>
				<g>
					<g>
						<g>
							<g>
								<g>
									<path style="fill:#FAFAFA;" d="M429.963,452.185c0.128,0.011,0.46-2.622,0.564-5.889c0.109-3.268-0.052-5.917-0.18-5.914
										c-0.135,0.002-0.189,2.644-0.297,5.898C429.946,449.534,429.828,452.174,429.963,452.185z"/>
								</g>
							</g>
						</g>
					</g>
				</g>
				<g>
					<g>
						<g>
							<g>
								<g>
									<path style="fill:#FAFAFA;" d="M423.695,451.945c0.132,0.005,0.323-2.498,0.428-5.589c0.105-3.092,0.083-5.601-0.049-5.606
										c-0.132-0.004-0.324,2.498-0.428,5.59C423.542,449.431,423.564,451.94,423.695,451.945z"/>
								</g>
							</g>
						</g>
					</g>
				</g>
				<g>
					<g>
						<g>
							<g>
								<g>
									<path style="fill:#FAFAFA;" d="M419.118,452.187c0.132-0.001,0.218-2.59,0.192-5.782c-0.026-3.193-0.154-5.78-0.286-5.779
										c-0.132,0.001-0.218,2.589-0.192,5.783C418.858,449.601,418.986,452.188,419.118,452.187z"/>
								</g>
							</g>
						</g>
					</g>
				</g>
				<g>
					<g>
						<g>
							<g>
								<g>
									<path style="fill:#FAFAFA;" d="M414.825,451.573c0.131-0.013-0.024-2.718-0.347-6.043c-0.323-3.325-0.691-6.01-0.822-5.997
										c-0.131,0.013,0.024,2.718,0.347,6.043C414.326,448.9,414.694,451.585,414.825,451.573z"/>
								</g>
							</g>
						</g>
					</g>
				</g>
				<g>
					<g>
						<g>
							<g>
								<g>
									<path style="fill:#FAFAFA;" d="M409.291,450.97c0.126-0.016-0.072-2.337-0.685-5.139c-0.607-2.804-1.391-4.997-1.512-4.959
										c-0.131,0.039,0.444,2.278,1.046,5.061C408.748,448.712,409.156,450.988,409.291,450.97z"/>
								</g>
							</g>
						</g>
					</g>
				</g>
			</g>
			<g>
				<g>
					<g>
						<g>
							<path style="fill:#EBEBEB;" d="M457.656,399.935v8.61c0,1.872-1.517,3.39-3.389,3.39h-58.906
								c-1.872,0-3.389-1.517-3.389-3.39v-8.61H457.656z"/>
						</g>
					</g>
				</g>
			</g>
			<g>
				<g>
					<g>
						<g>
							<polygon style="fill:#E0E0E0;" points="452.549,411.934 452.06,414.675 397.707,418.548 396.33,411.934 							"/>
						</g>
					</g>
				</g>
			</g>
		</g>
	</g>
	<g>
		<g>
			<g>
				<path style="fill:#EBEBEB;" d="M425.425,97.645c1.9-1.148,3.923-2.019,6.009-2.611l1.238-5.948l10.049-0.176l1.446,5.9
					c2.106,0.519,4.158,1.318,6.097,2.399l5.079-3.329l7.23,6.981l-3.148,5.191c1.149,1.901,2.019,3.924,2.611,6.01l5.947,1.238
					l0.177,10.049l-5.9,1.447c-0.519,2.105-1.318,4.157-2.399,6.097l3.329,5.079l-6.98,7.23l-5.192-3.148
					c-1.9,1.148-3.923,2.019-6.01,2.611l-1.238,5.948l-10.048,0.176l-1.446-5.9c-2.106-0.519-4.157-1.318-6.097-2.399l-5.079,3.329
					l-7.231-6.981l3.148-5.192c-1.148-1.9-2.019-3.923-2.612-6.01l-5.947-1.238l-0.176-10.049l5.9-1.447
					c0.519-2.105,1.318-4.157,2.399-6.097l-3.329-5.079l6.98-7.23L425.425,97.645L425.425,97.645z M430.782,111.031
					c-4.136,4.284-4.016,11.109,0.268,15.245c4.283,4.136,11.109,4.015,15.245-0.268c4.135-4.284,4.016-11.109-0.268-15.245
					C441.743,106.627,434.918,106.747,430.782,111.031z"/>
			</g>
		</g>
	</g>
</g>
<g id="Background_Simple" style="display:none;">
	<g style="display:inline;">
		<path style="fill:#F5F5F5;" d="M452.895,103.432l-2.034-4.381c-17.148-36.928-52.786-62.002-93.085-63.92
			c-5.18-0.246-10.38-0.119-15.554,0.401c-37.251,3.744-71.968,27.739-89.008,61.519c-10.021,19.866-14.83,43.488-31.304,58.31
			c-21.44,19.29-53.875,16.365-82.227,12.316c-28.352-4.049-60.818-6.893-82.175,12.492c-13.375,12.14-19.279,30.863-20.324,48.996
			c-2.769,48.008,25.744,94.38,65.68,120.292c39.936,25.913,89.521,33.348,136.847,29.162
			c66.297-5.863,131.954-34.906,175.183-86.23C458.122,241.065,475.9,166.571,452.895,103.432z"/>
	</g>
</g>
<g id="Floor">
	<g>
		<g>
			<path style="fill:#263238;" d="M462.12,454.729c0,0.144-94.977,0.26-212.11,0.26c-117.174,0-212.13-0.116-212.13-0.26
				c0-0.144,94.957-0.26,212.13-0.26C367.143,454.469,462.12,454.586,462.12,454.729z"/>
		</g>
	</g>
</g>
<g id="Device">
	<g>
		<g>
			<g>
				<g>
					<g>
						<g>
							<g>
								<g>
									<g>
										<path style="fill:#263238;" d="M348.333,453.85l-133.424-0.079c-16.047-0.008-29.05-13.022-29.047-29.069l0.065-334.496
											c0.003-16.056,13.025-29.068,29.081-29.058l133.424,0.078c16.047,0.01,29.049,13.023,29.046,29.069l-0.066,334.497
											C377.411,440.848,364.389,453.859,348.333,453.85z"/>
									</g>
								</g>
							</g>
						</g>
					</g>
					<g>
						<g>
							<g>
								<g>
									<g>
										<path style="fill:#FFFFFF;" d="M348.291,73.056l-25.869-0.015c-3.469-0.002-6.283,2.937-6.282,6.563l-0.002,4.692
											c0,3.626-2.813,6.565-6.282,6.563l-50.424-0.03c-3.469-0.002-6.281-2.944-6.28-6.57l0.001-4.692
											c0-3.627-2.812-6.569-6.281-6.57l-9.098-0.006l-22.641-0.013c-11.244-0.006-20.364,9.106-20.366,20.351l-0.064,326.492
											c-0.002,11.24,9.104,20.353,20.343,20.36l133.158,0.078c11.244,0.007,20.363-9.106,20.366-20.35l0.064-326.494
											C368.636,82.176,359.53,73.063,348.291,73.056z"/>
									</g>
								</g>
							</g>
						</g>
					</g>
				</g>
			</g>
		</g>
		<g>
			<rect x="194.747" y="155.197" style="fill:#FF725E;" width="173.844" height="113.617"/>
		</g>
		<g>
			<path style="fill:#EBEBEB;" d="M326.309,140.872H216.451c-6.003,0-10.869-4.866-10.869-10.869v-2.289
				c0-6.003,4.866-10.869,10.869-10.869h109.858c6.003,0,10.869,4.866,10.869,10.869v2.289
				C337.178,136.005,332.312,140.872,326.309,140.872z"/>
		</g>
		<g>
			<g>
				<circle style="fill:#263238;" cx="351.696" cy="121.078" r="2.879"/>
			</g>
			<g>
				<path style="fill:#263238;" d="M354.575,128.858c0,1.59-1.289,2.879-2.879,2.879c-1.59,0-2.879-1.289-2.879-2.879
					c0-1.59,1.289-2.879,2.879-2.879C353.286,125.979,354.575,127.268,354.575,128.858z"/>
			</g>
			<g>
				<circle style="fill:#263238;" cx="351.696" cy="136.638" r="2.879"/>
			</g>
		</g>
		<g>
			<g>
				<path style="fill:#263238;" d="M354.033,289.572c0,0.144-32.401,0.26-72.36,0.26c-39.973,0-72.367-0.117-72.367-0.26
					c0-0.144,32.394-0.26,72.367-0.26C321.632,289.312,354.033,289.428,354.033,289.572z"/>
			</g>
		</g>
		<g>
			<g>
				<path style="fill:#263238;" d="M354.033,300.982c0,0.144-32.401,0.26-72.36,0.26c-39.973,0-72.367-0.117-72.367-0.26
					s32.394-0.26,72.367-0.26C321.632,300.722,354.033,300.838,354.033,300.982z"/>
			</g>
		</g>
		<g>
			<g>
				<path style="fill:#263238;" d="M354.033,312.392c0,0.144-32.401,0.26-72.36,0.26c-39.973,0-72.367-0.116-72.367-0.26
					c0-0.144,32.394-0.26,72.367-0.26C321.632,312.132,354.033,312.248,354.033,312.392z"/>
			</g>
		</g>
		<g>
			<g>
				<path style="fill:#263238;" d="M354.033,323.802c0,0.144-32.401,0.26-72.36,0.26c-39.973,0-72.367-0.117-72.367-0.26
					c0-0.144,32.394-0.26,72.367-0.26C321.632,323.542,354.033,323.658,354.033,323.802z"/>
			</g>
		</g>
		<g>
			<g>
				<path style="fill:#263238;" d="M354.033,335.212c0,0.144-32.401,0.26-72.36,0.26c-39.973,0-72.367-0.116-72.367-0.26
					c0-0.144,32.394-0.26,72.367-0.26C321.632,334.952,354.033,335.069,354.033,335.212z"/>
			</g>
		</g>
		<g>
			<g>
				<path style="fill:#263238;" d="M354.033,346.622c0,0.144-32.401,0.26-72.36,0.26c-39.973,0-72.367-0.117-72.367-0.26
					c0-0.144,32.394-0.26,72.367-0.26C321.632,346.362,354.033,346.478,354.033,346.622z"/>
			</g>
		</g>
		<g>
			<g>
				<path style="fill:#263238;" d="M354.033,396.404c0,0.144-32.401,0.26-72.36,0.26c-39.973,0-72.367-0.116-72.367-0.26
					s32.394-0.26,72.367-0.26C321.632,396.144,354.033,396.26,354.033,396.404z"/>
			</g>
		</g>
		<g>
			<g>
				<path style="fill:#263238;" d="M354.033,406.129c0,0.144-32.401,0.26-72.36,0.26c-39.973,0-72.367-0.116-72.367-0.26
					c0-0.144,32.394-0.26,72.367-0.26C321.632,405.868,354.033,405.985,354.033,406.129z"/>
			</g>
		</g>
		<g>
			<g>
				<path style="fill:#263238;" d="M354.033,415.853c0,0.144-32.401,0.261-72.36,0.261c-39.973,0-72.367-0.117-72.367-0.261
					c0-0.144,32.394-0.26,72.367-0.26C321.632,415.593,354.033,415.71,354.033,415.853z"/>
			</g>
		</g>
		<g>
			<circle style="fill:#FF725E;" cx="225.319" cy="375.556" r="11.964"/>
		</g>
		<g>
			<g>
				<path style="fill:#263238;" d="M294.635,373.134c0,0.144-10.497,0.26-23.443,0.26c-12.95,0-23.445-0.116-23.445-0.26
					c0-0.144,10.495-0.26,23.445-0.26C284.139,372.874,294.635,372.99,294.635,373.134z"/>
			</g>
		</g>
		<g>
			<g>
				<g>
					<path style="fill:#FFFFFF;" d="M351.179,254.434c-0.013,0.011-0.133-0.109-0.355-0.353c-0.255-0.289-0.573-0.65-0.967-1.098
						c-0.882-1.035-2.101-2.465-3.647-4.28c-3.184-3.803-7.708-9.205-13.277-15.856c-5.593-6.735-12.23-14.726-19.595-23.594
						c-0.937-1.127-1.785-2.253-2.972-3.004c-1.16-0.788-2.563-1.207-3.984-1.292c-1.428-0.078-2.879,0.276-4.165,0.952
						c-1.291,0.681-2.264,1.848-3.431,2.93c-4.521,4.365-9.201,8.882-13.995,13.51c-3.406,3.283-6.755,6.51-9.944,9.583
						l-0.284,0.273l-0.321-0.227c-4.78-3.372-9.42-6.646-13.882-9.795c-1.115-0.787-2.218-1.567-3.31-2.339
						c-1.116-0.77-2.119-1.612-3.286-2.002c-2.323-0.906-4.97-0.562-6.978,0.675c-1.018,0.613-1.795,1.49-2.637,2.385
						c-0.829,0.879-1.647,1.746-2.452,2.6c-1.61,1.706-3.171,3.358-4.678,4.954c-3.012,3.183-5.809,6.139-8.361,8.835
						c-5.073,5.323-9.162,9.614-12.04,12.634c-1.387,1.428-2.48,2.554-3.277,3.375c-0.349,0.347-0.633,0.629-0.865,0.859
						c-0.198,0.19-0.305,0.282-0.316,0.271c-0.011-0.01,0.074-0.123,0.251-0.333c0.215-0.246,0.478-0.548,0.801-0.919
						c0.768-0.849,1.82-2.012,3.156-3.489c2.827-3.067,6.845-7.425,11.829-12.832c2.526-2.721,5.295-5.703,8.276-8.915
						c1.495-1.607,3.044-3.271,4.641-4.989c0.8-0.859,1.612-1.731,2.436-2.615c0.804-0.865,1.669-1.856,2.793-2.54
						c2.209-1.381,5.144-1.777,7.731-0.784c0.645,0.227,1.269,0.564,1.847,0.939l1.634,1.145c1.095,0.768,2.203,1.544,3.321,2.328
						c4.473,3.14,9.125,6.406,13.916,9.769l-0.604,0.047c3.184-3.073,6.528-6.3,9.93-9.583c4.795-4.619,9.475-9.128,13.998-13.485
						c1.132-1.038,2.196-2.315,3.659-3.089c1.438-0.754,3.062-1.141,4.654-1.051c1.586,0.097,3.148,0.575,4.436,1.455
						c1.329,0.85,2.264,2.11,3.16,3.195c7.305,8.917,13.888,16.954,19.436,23.726c5.47,6.732,9.913,12.201,13.04,16.05
						c1.487,1.863,2.66,3.333,3.508,4.395c0.365,0.473,0.658,0.854,0.894,1.159C351.098,254.283,351.192,254.423,351.179,254.434z"
						/>
				</g>
			</g>
		</g>
		<g>
			<g>
				<g>
					<path style="fill:#FFFFFF;" d="M284.914,184.614c-0.101,0.005-0.069-0.98-0.526-2.642c-0.451-1.63-1.57-4.01-4.028-5.836
						c-2.375-1.831-6.278-2.852-10.051-1.442c-3.741,1.293-6.969,5.273-6.927,9.919c-0.043,4.647,3.185,8.629,6.927,9.922
						c3.773,1.409,7.676,0.389,10.052-1.443c2.457-1.826,3.576-4.206,4.027-5.836C284.845,185.594,284.813,184.609,284.914,184.614
						c0.033,0,0.054,0.242,0.061,0.708c0.017,0.464-0.035,1.157-0.224,2.025c-0.354,1.712-1.419,4.27-3.978,6.286
						c-2.47,2.019-6.655,3.216-10.766,1.735c-2.025-0.708-3.963-2.071-5.344-3.97c-1.418-1.874-2.224-4.295-2.243-6.786
						c0.021-2.49,0.826-4.911,2.244-6.783c1.381-1.898,3.319-3.261,5.343-3.969c4.111-1.48,8.296-0.284,10.766,1.735
						c2.559,2.016,3.624,4.574,3.978,6.286c0.189,0.868,0.241,1.561,0.224,2.025C284.967,184.372,284.947,184.614,284.914,184.614z"
						/>
				</g>
			</g>
		</g>
		<g>
			<path style="fill:#F5F5F5;" d="M368.591,422.22c-1.081,7.391-4.341,11.492-8.509,14.222V154.644h8.509V422.22z"/>
		</g>
		<g>
			<path style="fill:#E0E0E0;" d="M364.626,183.944h-0.79c-2.073,0-3.754-1.681-3.754-3.754v-18.505c0-2.073,1.68-3.754,3.754-3.754
				h0.79c2.073,0,3.754,1.681,3.754,3.754v18.505C368.379,182.263,366.699,183.944,364.626,183.944z"/>
		</g>
	</g>
</g>
<g id="Icon_3">
	<g>
		<g>
			<g>
				<circle style="fill:#FFFFFF;" cx="393.887" cy="383.819" r="38.587"/>
			</g>
			<g>
				<g>
					<path style="fill:#263238;" d="M432.474,383.819c0,0-0.029-0.212-0.058-0.625c-0.028-0.431-0.067-1.04-0.118-1.831
						c-0.024-0.404-0.051-0.854-0.081-1.349c-0.052-0.494-0.158-1.029-0.245-1.611c-0.093-0.582-0.192-1.209-0.299-1.878
						c-0.08-0.675-0.331-1.36-0.504-2.103c-0.68-2.98-2.075-6.501-4.274-10.234c-2.217-3.716-5.416-7.599-9.773-10.895
						c-0.547-0.407-1.101-0.82-1.661-1.237c-0.583-0.382-1.198-0.732-1.805-1.106c-0.62-0.352-1.207-0.781-1.873-1.082
						c-0.658-0.315-1.322-0.634-1.993-0.956c-0.336-0.159-0.674-0.319-1.014-0.48c-0.353-0.129-0.708-0.258-1.065-0.387
						c-0.713-0.26-1.433-0.522-2.16-0.787c-0.734-0.242-1.501-0.398-2.261-0.605c-0.767-0.174-1.522-0.444-2.322-0.525
						c-1.586-0.225-3.19-0.552-4.851-0.561c-0.827-0.029-1.661-0.109-2.501-0.096c-0.84,0.043-1.686,0.087-2.539,0.131
						c-0.425,0.03-0.856,0.027-1.281,0.083l-1.279,0.197c-0.854,0.142-1.722,0.242-2.58,0.419c-1.693,0.461-3.446,0.804-5.113,1.501
						c-1.72,0.551-3.338,1.4-5.001,2.198c-0.81,0.439-1.586,0.951-2.387,1.426c-0.392,0.251-0.811,0.465-1.185,0.749l-1.129,0.846
						c-1.559,1.07-2.921,2.408-4.349,3.696c-1.289,1.427-2.645,2.824-3.756,4.443l-0.882,1.18l-0.772,1.261l-0.771,1.27
						c-0.268,0.418-0.514,0.85-0.714,1.307c-0.432,0.897-0.866,1.799-1.301,2.703c-0.345,0.943-0.692,1.889-1.04,2.839
						c-1.25,3.847-1.923,7.934-1.978,12.092c0.055,4.16,0.726,8.248,1.975,12.097c0.348,0.95,0.694,1.897,1.04,2.84
						c0.436,0.905,0.87,1.806,1.302,2.704c0.201,0.457,0.445,0.89,0.714,1.308l0.771,1.27l0.772,1.262l0.882,1.18
						c1.112,1.62,2.467,3.018,3.757,4.445c1.427,1.289,2.79,2.628,4.349,3.698l1.129,0.846c0.374,0.284,0.793,0.498,1.185,0.749
						c0.802,0.476,1.578,0.987,2.388,1.427c1.663,0.798,3.281,1.648,5.001,2.198c1.667,0.697,3.421,1.04,5.114,1.501
						c0.858,0.178,1.727,0.278,2.58,0.419l1.279,0.197c0.426,0.056,0.856,0.053,1.282,0.083c0.853,0.044,1.699,0.088,2.539,0.131
						c0.84,0.013,1.674-0.068,2.501-0.096c1.662-0.009,3.265-0.336,4.852-0.561c0.8-0.082,1.555-0.352,2.323-0.526
						c0.759-0.206,1.527-0.362,2.261-0.605c0.727-0.265,1.447-0.527,2.16-0.787c0.357-0.13,0.712-0.259,1.065-0.387
						c0.34-0.161,0.677-0.321,1.013-0.481c0.671-0.322,1.336-0.64,1.993-0.955c0.665-0.302,1.253-0.73,1.873-1.083
						c0.608-0.374,1.222-0.724,1.805-1.107c0.56-0.417,1.113-0.829,1.661-1.237c4.356-3.296,7.555-7.179,9.772-10.895
						c2.199-3.732,3.594-7.253,4.273-10.233c0.173-0.744,0.424-1.428,0.504-2.103c0.106-0.669,0.206-1.295,0.299-1.877
						c0.087-0.582,0.193-1.117,0.245-1.611c0.03-0.495,0.056-0.944,0.081-1.348c0.051-0.792,0.091-1.4,0.118-1.831
						C432.446,384.031,432.474,383.819,432.474,383.819s0.007,0.212-0.005,0.625c-0.016,0.432-0.038,1.043-0.067,1.837
						c-0.017,0.406-0.035,0.857-0.056,1.354c-0.044,0.496-0.142,1.034-0.221,1.62c-0.086,0.586-0.178,1.216-0.276,1.889
						c-0.073,0.68-0.317,1.369-0.484,2.119c-0.653,3.003-2.028,6.557-4.22,10.333c-2.21,3.759-5.415,7.693-9.799,11.039
						c-0.551,0.414-1.108,0.832-1.672,1.255c-0.587,0.389-1.206,0.745-1.818,1.125c-0.625,0.359-1.217,0.793-1.888,1.101
						c-0.663,0.321-1.333,0.645-2.01,0.973c-0.339,0.162-0.68,0.325-1.023,0.489c-0.357,0.131-0.715,0.263-1.075,0.396
						c-0.72,0.265-1.447,0.532-2.181,0.802c-0.741,0.248-1.516,0.408-2.284,0.619c-0.775,0.178-1.538,0.453-2.347,0.538
						c-1.603,0.233-3.225,0.567-4.905,0.581c-0.837,0.031-1.68,0.114-2.53,0.103c-0.85-0.042-1.706-0.084-2.569-0.126
						c-0.431-0.029-0.866-0.026-1.297-0.082l-1.295-0.196c-0.864-0.141-1.743-0.241-2.613-0.419
						c-1.715-0.462-3.491-0.808-5.181-1.509c-1.743-0.555-3.383-1.412-5.069-2.218c-0.821-0.444-1.608-0.96-2.421-1.441
						c-0.398-0.254-0.822-0.471-1.201-0.757l-1.145-0.855c-1.58-1.082-2.963-2.435-4.41-3.741c-1.309-1.443-2.682-2.859-3.811-4.499
						l-0.894-1.195l-0.783-1.278l-0.782-1.286c-0.272-0.424-0.52-0.862-0.724-1.325c-0.439-0.91-0.879-1.823-1.321-2.74
						c-0.351-0.956-0.702-1.915-1.056-2.878c-1.269-3.901-1.95-8.045-2.005-12.26c0.055-4.214,0.738-8.357,2.007-12.256
						c0.353-0.963,0.705-1.921,1.056-2.877c0.442-0.917,0.882-1.83,1.32-2.739c0.204-0.463,0.453-0.9,0.725-1.324l0.782-1.286
						l0.784-1.277l0.894-1.195c1.129-1.64,2.502-3.055,3.811-4.498c1.447-1.305,2.83-2.657,4.409-3.74l1.145-0.854
						c0.379-0.286,0.803-0.503,1.201-0.757c0.813-0.481,1.6-0.997,2.421-1.441c1.685-0.806,3.325-1.663,5.068-2.218
						c1.69-0.701,3.465-1.048,5.18-1.509c0.869-0.178,1.748-0.278,2.612-0.419l1.295-0.196c0.431-0.056,0.866-0.053,1.297-0.082
						c0.863-0.042,1.719-0.085,2.569-0.126c0.85-0.011,1.693,0.072,2.529,0.103c1.68,0.014,3.302,0.348,4.905,0.581
						c0.809,0.086,1.572,0.36,2.347,0.538c0.767,0.211,1.543,0.372,2.284,0.619c0.734,0.27,1.461,0.537,2.181,0.802
						c0.36,0.133,0.718,0.264,1.075,0.396c0.343,0.164,0.684,0.327,1.023,0.489c0.677,0.328,1.347,0.652,2.01,0.973
						c0.671,0.307,1.263,0.742,1.888,1.1c0.612,0.38,1.231,0.736,1.819,1.125c0.564,0.423,1.121,0.842,1.672,1.255
						c4.384,3.346,7.589,7.28,9.8,11.039c2.193,3.775,3.567,7.33,4.221,10.333c0.167,0.75,0.411,1.439,0.484,2.119
						c0.098,0.673,0.191,1.304,0.276,1.89c0.079,0.586,0.177,1.124,0.221,1.62c0.02,0.497,0.039,0.949,0.056,1.355
						c0.029,0.794,0.051,1.404,0.067,1.837C432.482,383.607,432.474,383.819,432.474,383.819z"/>
				</g>
			</g>
		</g>
		<g>
			<g>
				<path style="fill:#FF725E;" d="M376.632,376.178c-0.553,0-1-0.447-1-1v-9.001c0-0.553,0.447-1,1-1h8.853c0.553,0,1,0.447,1,1
					c0,0.553-0.447,1-1,1h-7.853v8.001C377.632,375.731,377.184,376.178,376.632,376.178z"/>
			</g>
			<g>
				<path style="fill:#FF725E;" d="M390.385,381.167c-0.253,0-0.507-0.096-0.701-0.287l-13.754-13.542
					c-0.393-0.388-0.398-1.021-0.012-1.414c0.388-0.395,1.021-0.399,1.414-0.012l13.754,13.542c0.394,0.388,0.398,1.021,0.012,1.414
					C390.902,381.068,390.644,381.167,390.385,381.167z"/>
			</g>
			<g>
				<path style="fill:#FF725E;" d="M385.514,402.461h-9.001c-0.553,0-1-0.447-1-1v-8.854c0-0.553,0.447-1,1-1c0.553,0,1,0.447,1,1
					v7.854h8.001c0.553,0,1,0.447,1,1C386.514,402.014,386.067,402.461,385.514,402.461z"/>
			</g>
			<g>
				<path style="fill:#FF725E;" d="M376.962,402.461c-0.253,0-0.507-0.096-0.701-0.287c-0.394-0.388-0.398-1.021-0.012-1.414
					l13.542-13.754c0.388-0.394,1.021-0.399,1.414-0.012c0.394,0.388,0.398,1.021,0.012,1.414l-13.542,13.754
					C377.479,402.362,377.221,402.461,376.962,402.461z"/>
			</g>
			<g>
				<path style="fill:#FF725E;" d="M411.322,376.178c-0.553,0-1-0.447-1-1v-8.001h-7.854c-0.553,0-1-0.447-1-1c0-0.553,0.447-1,1-1
					h8.854c0.553,0,1,0.447,1,1v9.001C412.322,375.731,411.875,376.178,411.322,376.178z"/>
			</g>
			<g>
				<path style="fill:#FF725E;" d="M397.568,381.167c-0.259,0-0.517-0.1-0.713-0.299c-0.387-0.394-0.382-1.026,0.012-1.414
					l13.754-13.542c0.393-0.388,1.025-0.383,1.414,0.012c0.387,0.394,0.382,1.026-0.012,1.414l-13.754,13.542
					C398.075,381.072,397.821,381.167,397.568,381.167z"/>
			</g>
			<g>
				<path style="fill:#FF725E;" d="M411.44,402.461h-9.001c-0.553,0-1-0.447-1-1c0-0.553,0.447-1,1-1h8.001v-7.854
					c0-0.553,0.447-1,1-1c0.553,0,1,0.447,1,1v8.854C412.44,402.014,411.993,402.461,411.44,402.461z"/>
			</g>
			<g>
				<path style="fill:#FF725E;" d="M410.991,402.461c-0.259,0-0.517-0.1-0.713-0.299l-13.541-13.754
					c-0.387-0.393-0.382-1.026,0.012-1.414c0.393-0.388,1.025-0.382,1.414,0.012l13.541,13.754c0.387,0.393,0.382,1.026-0.012,1.414
					C411.498,402.366,411.244,402.461,410.991,402.461z"/>
			</g>
		</g>
	</g>
</g>
<g id="Icon_2">
	<g>
		<g>
			<g>
				<circle style="fill:#FFFFFF;" cx="393.887" cy="293.733" r="38.587"/>
			</g>
			<g>
				<g>
					<path style="fill:#263238;" d="M432.474,293.733c0,0-0.029-0.212-0.058-0.624c-0.028-0.431-0.067-1.04-0.118-1.831
						c-0.024-0.404-0.051-0.854-0.081-1.349c-0.052-0.494-0.158-1.029-0.245-1.611c-0.093-0.582-0.192-1.209-0.299-1.878
						c-0.08-0.675-0.331-1.36-0.504-2.103c-0.68-2.98-2.075-6.501-4.274-10.233c-2.217-3.717-5.416-7.599-9.773-10.895
						c-0.547-0.407-1.101-0.82-1.661-1.236c-0.583-0.382-1.198-0.732-1.805-1.106c-0.62-0.352-1.207-0.781-1.873-1.082
						c-0.658-0.315-1.322-0.634-1.993-0.955c-0.336-0.159-0.674-0.32-1.014-0.48c-0.353-0.129-0.708-0.258-1.065-0.387
						c-0.713-0.26-1.433-0.522-2.16-0.787c-0.734-0.242-1.501-0.398-2.261-0.605c-0.767-0.174-1.522-0.444-2.322-0.526
						c-1.586-0.225-3.19-0.552-4.851-0.561c-0.827-0.028-1.661-0.109-2.501-0.096c-0.84,0.044-1.686,0.087-2.539,0.132
						c-0.425,0.03-0.856,0.027-1.281,0.083l-1.279,0.197c-0.854,0.142-1.722,0.242-2.58,0.419c-1.693,0.461-3.446,0.804-5.113,1.501
						c-1.72,0.551-3.338,1.401-5.001,2.198c-0.81,0.439-1.586,0.951-2.387,1.426c-0.392,0.251-0.811,0.465-1.185,0.749l-1.129,0.845
						c-1.559,1.07-2.921,2.408-4.349,3.696c-1.289,1.427-2.645,2.824-3.756,4.443l-0.882,1.18l-0.772,1.261l-0.771,1.269
						c-0.268,0.418-0.514,0.85-0.714,1.307c-0.432,0.898-0.866,1.799-1.301,2.703c-0.345,0.943-0.692,1.889-1.04,2.839
						c-1.25,3.847-1.923,7.934-1.978,12.092c0.055,4.16,0.726,8.248,1.975,12.097c0.348,0.95,0.694,1.897,1.04,2.84
						c0.436,0.905,0.87,1.806,1.302,2.704c0.201,0.457,0.445,0.89,0.714,1.308l0.771,1.27l0.772,1.262l0.882,1.18
						c1.112,1.62,2.467,3.018,3.757,4.445c1.427,1.289,2.79,2.627,4.349,3.698l1.129,0.845c0.374,0.284,0.793,0.498,1.185,0.749
						c0.802,0.476,1.578,0.987,2.388,1.427c1.663,0.798,3.281,1.648,5.001,2.199c1.667,0.697,3.421,1.04,5.114,1.501
						c0.858,0.178,1.727,0.278,2.58,0.419l1.279,0.197c0.426,0.056,0.856,0.054,1.282,0.083c0.853,0.044,1.699,0.088,2.539,0.132
						c0.84,0.013,1.674-0.068,2.501-0.096c1.662-0.009,3.265-0.336,4.852-0.561c0.8-0.082,1.555-0.352,2.323-0.526
						c0.759-0.206,1.527-0.362,2.261-0.605c0.727-0.265,1.447-0.527,2.16-0.787c0.357-0.13,0.712-0.259,1.065-0.387
						c0.34-0.161,0.677-0.321,1.013-0.481c0.671-0.322,1.336-0.64,1.993-0.956c0.665-0.302,1.253-0.73,1.873-1.083
						c0.608-0.374,1.222-0.724,1.805-1.107c0.56-0.417,1.113-0.829,1.661-1.236c4.356-3.296,7.555-7.179,9.772-10.895
						c2.199-3.732,3.594-7.253,4.273-10.233c0.173-0.744,0.424-1.428,0.504-2.103c0.106-0.669,0.206-1.295,0.299-1.877
						c0.087-0.582,0.193-1.117,0.245-1.611c0.03-0.495,0.056-0.944,0.081-1.348c0.051-0.792,0.091-1.4,0.118-1.831
						C432.446,293.945,432.474,293.733,432.474,293.733s0.007,0.212-0.005,0.625c-0.016,0.432-0.038,1.043-0.067,1.837
						c-0.017,0.406-0.035,0.858-0.056,1.355c-0.044,0.496-0.142,1.034-0.221,1.62c-0.086,0.586-0.178,1.216-0.276,1.889
						c-0.073,0.679-0.317,1.369-0.484,2.119c-0.653,3.003-2.028,6.557-4.22,10.332c-2.21,3.759-5.415,7.693-9.799,11.039
						c-0.551,0.414-1.108,0.832-1.672,1.255c-0.587,0.389-1.206,0.745-1.818,1.125c-0.625,0.359-1.217,0.793-1.888,1.101
						c-0.663,0.321-1.333,0.645-2.01,0.973c-0.339,0.162-0.68,0.325-1.023,0.489c-0.357,0.131-0.715,0.263-1.075,0.396
						c-0.72,0.265-1.447,0.532-2.181,0.802c-0.741,0.248-1.516,0.408-2.284,0.619c-0.775,0.178-1.538,0.453-2.347,0.539
						c-1.603,0.232-3.225,0.567-4.905,0.581c-0.837,0.031-1.68,0.114-2.53,0.103c-0.85-0.042-1.706-0.084-2.569-0.126
						c-0.431-0.029-0.866-0.026-1.297-0.082l-1.295-0.196c-0.864-0.141-1.743-0.241-2.613-0.419
						c-1.715-0.462-3.491-0.808-5.181-1.509c-1.743-0.555-3.383-1.412-5.069-2.218c-0.821-0.444-1.608-0.96-2.421-1.441
						c-0.398-0.254-0.822-0.471-1.201-0.757l-1.145-0.854c-1.58-1.082-2.963-2.435-4.41-3.741c-1.309-1.443-2.682-2.859-3.811-4.499
						l-0.894-1.195l-0.783-1.278l-0.782-1.286c-0.272-0.424-0.52-0.862-0.724-1.325c-0.439-0.91-0.879-1.823-1.321-2.74
						c-0.351-0.956-0.702-1.915-1.056-2.878c-1.269-3.901-1.95-8.045-2.005-12.26c0.055-4.214,0.738-8.357,2.007-12.256
						c0.353-0.962,0.705-1.921,1.056-2.877c0.442-0.917,0.882-1.83,1.32-2.739c0.204-0.463,0.453-0.9,0.725-1.324l0.782-1.286
						l0.784-1.277l0.894-1.195c1.129-1.64,2.502-3.054,3.811-4.498c1.447-1.305,2.83-2.657,4.409-3.74l1.145-0.854
						c0.379-0.286,0.803-0.503,1.201-0.757c0.813-0.481,1.6-0.997,2.421-1.441c1.685-0.806,3.325-1.663,5.068-2.218
						c1.69-0.701,3.465-1.048,5.18-1.509c0.869-0.178,1.748-0.278,2.612-0.419l1.295-0.196c0.431-0.056,0.866-0.053,1.297-0.082
						c0.863-0.043,1.719-0.085,2.569-0.126c0.85-0.011,1.693,0.072,2.529,0.103c1.68,0.014,3.302,0.348,4.905,0.581
						c0.809,0.086,1.572,0.36,2.347,0.538c0.767,0.211,1.543,0.372,2.284,0.619c0.734,0.27,1.461,0.537,2.181,0.802
						c0.36,0.132,0.718,0.264,1.075,0.396c0.343,0.164,0.684,0.327,1.023,0.489c0.677,0.328,1.347,0.652,2.01,0.973
						c0.671,0.307,1.263,0.742,1.888,1.1c0.612,0.38,1.231,0.737,1.819,1.125c0.564,0.423,1.121,0.842,1.672,1.255
						c4.384,3.346,7.589,7.28,9.8,11.039c2.193,3.775,3.567,7.33,4.221,10.333c0.167,0.75,0.411,1.44,0.484,2.119
						c0.098,0.673,0.191,1.303,0.276,1.89c0.079,0.586,0.177,1.124,0.221,1.62c0.02,0.497,0.039,0.949,0.056,1.355
						c0.029,0.794,0.051,1.405,0.067,1.837C432.482,293.522,432.474,293.733,432.474,293.733z"/>
				</g>
			</g>
		</g>
		<g>
			<g>
				<path style="fill:#FF725E;" d="M394.098,262.003c-17.524,0-31.731,14.206-31.731,31.731c0,17.525,14.206,31.731,31.731,31.731
					c17.524,0,31.731-14.206,31.731-31.731C425.828,276.209,411.622,262.003,394.098,262.003z M394.098,321.223
					c-15.196,0-27.515-12.319-27.515-27.515c0-15.196,12.319-27.515,27.515-27.515c15.196,0,27.515,12.319,27.515,27.515
					C421.612,308.904,409.294,321.223,394.098,321.223z"/>
			</g>
			<g>
				<g>
					<g>
						<path style="fill:#263238;" d="M416.147,300.648c-1.092-0.363-1.918-0.854-1.844-1.096c0.074-0.242,1.033-0.188,2.142,0.119
							c1.108,0.307,1.934,0.798,1.844,1.095C418.198,301.064,417.239,301.011,416.147,300.648z"/>
					</g>
				</g>
				<g>
					<g>
						<path style="fill:#263238;" d="M406.25,313.216c-0.602-0.981-0.919-1.888-0.707-2.025c0.211-0.137,0.911,0.521,1.563,1.469
							c0.651,0.948,0.968,1.855,0.707,2.024C407.551,314.854,406.852,314.196,406.25,313.216z"/>
					</g>
				</g>
				<g>
					<g>
						<path style="fill:#263238;" d="M390.589,316.486c0.17-1.138,0.511-2.036,0.761-2.005c0.25,0.031,0.363,0.985,0.251,2.13
							c-0.111,1.145-0.452,2.043-0.761,2.005C390.531,318.577,390.419,317.623,390.589,316.486z"/>
					</g>
				</g>
				<g>
					<g>
						<path style="fill:#263238;" d="M376.484,308.916c0.862-0.762,1.7-1.231,1.872-1.047c0.172,0.185-0.355,0.988-1.177,1.793
							c-0.821,0.805-1.66,1.274-1.872,1.046C375.095,310.481,375.622,309.678,376.484,308.916z"/>
					</g>
				</g>
				<g>
					<g>
						<path style="fill:#263238;" d="M370.546,294.05c1.15-0.03,2.094,0.149,2.107,0.4c0.013,0.251-0.907,0.528-2.054,0.618
							c-1.147,0.09-2.09-0.089-2.107-0.4C368.477,294.357,369.396,294.08,370.546,294.05z"/>
					</g>
				</g>
				<g>
					<g>
						<path style="fill:#263238;" d="M375.558,278.849c0.901,0.716,1.508,1.461,1.356,1.662c-0.152,0.201-1.034-0.178-1.971-0.847
							c-0.936-0.668-1.543-1.413-1.356-1.662C373.776,277.754,374.658,278.133,375.558,278.849z"/>
					</g>
				</g>
				<g>
					<g>
						<path style="fill:#263238;" d="M389.159,270.431c0.231,1.127,0.22,2.088-0.026,2.145c-0.245,0.057-0.679-0.8-0.968-1.914
							c-0.289-1.113-0.278-2.074,0.026-2.144C388.494,268.447,388.927,269.305,389.159,270.431z"/>
					</g>
				</g>
				<g>
					<g>
						<path style="fill:#263238;" d="M405,272.723c-0.548,1.012-1.174,1.741-1.398,1.627c-0.225-0.114-0.006-1.049,0.489-2.089
							c0.494-1.038,1.12-1.767,1.398-1.626C405.766,270.777,405.547,271.712,405,272.723z"/>
					</g>
				</g>
				<g>
					<g>
						<path style="fill:#263238;" d="M415.652,284.656c-1.07,0.423-2.018,0.579-2.117,0.347c-0.099-0.232,0.67-0.807,1.717-1.285
							c1.046-0.477,1.994-0.633,2.116-0.347C417.491,283.658,416.721,284.233,415.652,284.656z"/>
					</g>
				</g>
			</g>
			<g>
				<circle style="fill:#263238;" cx="394.098" cy="293.651" r="4.771"/>
			</g>
			<g>
				<polygon style="fill:#263238;" points="407.248,288.158 392.502,290.905 395.465,296.326 				"/>
			</g>
		</g>
	</g>
</g>
<g id="Icon_1">
	<g>
		<g>
			<g>
				
					<ellipse transform="matrix(0.7071 -0.7071 0.7071 0.7071 -29.5233 338.536)" style="fill:#FFFFFF;" cx="393.887" cy="204.906" rx="37.329" ry="37.329"/>
			</g>
			<g>
				<g>
					<path style="fill:#263238;" d="M431.217,204.906c0,0-0.028-0.205-0.057-0.604c-0.027-0.418-0.066-1.007-0.115-1.772
						c-0.023-0.391-0.05-0.826-0.078-1.305c-0.051-0.478-0.153-0.995-0.237-1.559c-0.178-1.126-0.347-2.431-0.778-3.851
						c-0.658-2.882-2.008-6.288-4.136-9.898c-2.145-3.595-5.24-7.35-9.454-10.538c-4.201-3.157-9.503-5.844-15.624-6.93
						c-1.534-0.217-3.085-0.533-4.692-0.542c-0.8-0.027-1.606-0.105-2.419-0.093c-0.812,0.042-1.631,0.084-2.455,0.127
						c-0.411,0.029-0.828,0.026-1.239,0.08l-1.237,0.19c-0.826,0.137-1.665,0.234-2.495,0.406c-1.637,0.446-3.333,0.778-4.945,1.452
						c-1.664,0.533-3.228,1.355-4.836,2.126c-0.783,0.425-1.534,0.92-2.309,1.38c-0.379,0.243-0.785,0.45-1.146,0.724l-1.092,0.818
						c-1.507,1.035-2.825,2.329-4.206,3.575c-1.247,1.38-2.558,2.731-3.633,4.298l-0.853,1.141l-0.746,1.22l-0.745,1.228
						c-0.259,0.404-0.497,0.822-0.691,1.264c-0.418,0.868-0.837,1.74-1.259,2.615c-0.334,0.912-0.669,1.827-1.006,2.746
						c-1.209,3.721-1.86,7.674-1.913,11.696c0.053,4.023,0.702,7.977,1.911,11.7c0.336,0.919,0.672,1.835,1.005,2.747
						c0.421,0.875,0.841,1.747,1.259,2.615c0.194,0.442,0.431,0.86,0.691,1.265l0.746,1.228l0.746,1.22l0.853,1.141
						c1.076,1.567,2.386,2.919,3.633,4.299c1.38,1.247,2.699,2.541,4.207,3.576l1.092,0.818c0.361,0.275,0.767,0.481,1.146,0.725
						c0.775,0.46,1.526,0.955,2.309,1.38c1.608,0.771,3.173,1.594,4.837,2.127c1.612,0.674,3.309,1.006,4.946,1.452
						c0.83,0.172,1.67,0.269,2.496,0.406l1.237,0.191c0.412,0.054,0.828,0.052,1.24,0.08c0.824,0.043,1.643,0.085,2.455,0.127
						c0.812,0.012,1.619-0.065,2.419-0.093c1.607-0.008,3.158-0.325,4.693-0.542c6.122-1.087,11.424-3.773,15.624-6.931
						c4.214-3.188,7.308-6.943,9.453-10.538c2.128-3.61,3.477-7.016,4.135-9.898c0.43-1.419,0.599-2.725,0.777-3.85
						c0.084-0.563,0.187-1.081,0.237-1.559c0.029-0.479,0.055-0.913,0.078-1.304c0.05-0.765,0.088-1.353,0.115-1.771
						C431.188,205.111,431.217,204.906,431.217,204.906s0.008,0.205-0.004,0.605c-0.015,0.42-0.036,1.01-0.064,1.777
						c-0.016,0.393-0.034,0.83-0.054,1.31c-0.042,0.48-0.137,1.001-0.213,1.567c-0.163,1.133-0.317,2.447-0.734,3.878
						c-0.632,2.905-1.961,6.345-4.081,9.997c-2.138,3.637-5.239,7.444-9.48,10.682c-4.227,3.208-9.578,5.944-15.768,7.063
						c-1.551,0.225-3.12,0.549-4.746,0.562c-0.81,0.03-1.625,0.111-2.448,0.1c-0.822-0.04-1.651-0.081-2.486-0.122
						c-0.417-0.028-0.838-0.025-1.255-0.079l-1.253-0.189c-0.836-0.137-1.687-0.233-2.528-0.406
						c-1.659-0.447-3.378-0.782-5.013-1.46c-1.686-0.537-3.274-1.366-4.904-2.146c-0.794-0.429-1.556-0.929-2.342-1.394
						c-0.385-0.246-0.796-0.455-1.162-0.733l-1.108-0.827c-1.529-1.047-2.867-2.356-4.267-3.619
						c-1.267-1.397-2.596-2.766-3.688-4.353l-0.865-1.156l-0.758-1.236l-0.757-1.245c-0.263-0.41-0.503-0.834-0.701-1.282
						c-0.424-0.88-0.85-1.764-1.278-2.651c-0.339-0.925-0.68-1.853-1.021-2.785c-1.228-3.774-1.887-7.785-1.94-11.863
						c0.053-4.078,0.715-8.086,1.942-11.859c0.342-0.931,0.682-1.859,1.022-2.783c0.428-0.887,0.853-1.771,1.278-2.651
						c0.198-0.448,0.438-0.871,0.701-1.281l0.757-1.244l0.758-1.236l0.865-1.156c1.092-1.587,2.421-2.956,3.687-4.352
						c1.4-1.263,2.738-2.571,4.267-3.618l1.108-0.827c0.367-0.277,0.777-0.487,1.162-0.732c0.786-0.465,1.548-0.965,2.342-1.394
						c1.63-0.78,3.217-1.609,4.904-2.146c1.635-0.679,3.353-1.014,5.012-1.46c0.841-0.172,1.692-0.269,2.528-0.406l1.253-0.189
						c0.417-0.054,0.838-0.051,1.255-0.079c0.835-0.041,1.663-0.082,2.485-0.122c0.822-0.011,1.638,0.07,2.447,0.1
						c1.626,0.014,3.195,0.337,4.746,0.562c6.19,1.118,11.541,3.854,15.768,7.061c4.241,3.238,7.342,7.044,9.481,10.681
						c2.121,3.653,3.451,7.092,4.082,9.998c0.417,1.431,0.572,2.746,0.734,3.878c0.076,0.567,0.171,1.087,0.213,1.568
						c0.02,0.481,0.038,0.918,0.054,1.311c0.028,0.768,0.049,1.358,0.064,1.777C431.224,204.701,431.217,204.906,431.217,204.906z"
						/>
				</g>
			</g>
		</g>
		<g>
			<g>
				<path style="fill:#FF725E;" d="M370.555,197.549l4.86,5.476c0,0,6.721-7.234,18.199-7.234c11.478,0,17.062,7.234,17.062,7.234
					l5.273-5.476c0,0-9.202-8.995-22.128-8.996C379.583,188.552,370.555,197.549,370.555,197.549z"/>
			</g>
			<g>
				<path style="fill:#FF725E;" d="M380.877,207.062l5.478,4.891c0,0,2.837-2.935,7.777-2.935c4.94,0,6.75,3.179,6.75,3.179
					l4.745-5.136c0,0-4.331-4.935-12.108-4.842C385.741,202.312,380.877,207.062,380.877,207.062z"/>
			</g>
			<g>
				<path style="fill:#FF725E;" d="M397.652,218.46c0.233,2.079-1.264,3.953-3.342,4.186c-2.079,0.233-3.953-1.264-4.186-3.342
					c-0.233-2.079,1.264-3.953,3.342-4.186C395.545,214.885,397.419,216.382,397.652,218.46z"/>
			</g>
		</g>
		<g>
			
				<rect x="357.354" y="205.111" transform="matrix(0.67 -0.7423 0.7423 0.67 -22.4025 360.8243)" style="fill:#263238;" width="74.629" height="1"/>
		</g>
	</g>
</g>
<g id="Character">
	<g>
		<g>
			<g>
				<g>
					<g>
						<path style="fill:#263238;" d="M108.03,121.508c-2.126-1.138-3.558-3.473-3.61-5.884c-0.051-2.411,1.28-4.805,3.357-6.032
							l8.092-2.099c0.424,10.285,0.917,20.566,1.479,30.844c-2.117-0.26-4.291-0.769-5.951-2.107
							c-1.66-1.338-2.655-3.695-1.86-5.674c-1.682-0.703-2.954-2.308-3.254-4.107C105.983,124.65,106.666,122.718,108.03,121.508z"
							/>
					</g>
				</g>
			</g>
			<g>
				<g>
					<g>
						<g>
							<g>
								<g>
									<g>
										<g>
											<g>
												<g>
													<g>
														<g>
															<g>
																<path style="fill:#FFBE9D;" d="M147.214,118.256l-0.042-3.654l-22.064-3.484c-6.785-0.503-13.885,6.504-14.1,13.304
																	c-0.238,7.555-0.232,16.789,0.838,22.387c2.151,11.257,10.868,12.424,10.868,12.424v11.191
																	c0.131,6.531,5.673,7.797,12.204,7.674l0,0c6.385-0.12,11.524-5.283,11.615-11.669L147.214,118.256z"/>
															</g>
														</g>
													</g>
												</g>
											</g>
										</g>
									</g>
								</g>
							</g>
							<g>
								<g>
									<g>
										<g>
											<g>
												<g>
													<g>
														<g>
															<g>
																<g>
																	<g>
																		<g>
																			<g>
																				<g>
																					<g>
																						<g>
																							<g>
																								<path style="fill:#263238;" d="M116.701,133.513c-0.003,0.767,0.644,1.402,1.445,1.42
																									c0.799,0.018,1.451-0.588,1.454-1.355c0.003-0.767-0.644-1.403-1.443-1.421
																									C117.357,132.139,116.704,132.746,116.701,133.513z"/>
																							</g>
																						</g>
																					</g>
																				</g>
																			</g>
																		</g>
																	</g>
																</g>
															</g>
														</g>
													</g>
												</g>
											</g>
										</g>
									</g>
								</g>
								<g>
									<g>
										<g>
											<g>
												<g>
													<g>
														<g>
															<g>
																<g>
																	<g>
																		<g>
																			<g>
																				<g>
																					<g>
																						<g>
																							<g>
																								<g>
																									<path style="fill:#263238;" d="M113.551,129.153c0.186,0.183,1.259-0.664,2.821-0.709
																										c1.559-0.067,2.73,0.7,2.893,0.503c0.081-0.087-0.113-0.423-0.623-0.77
																										c-0.503-0.346-1.351-0.672-2.324-0.637c-0.972,0.036-1.779,0.42-2.238,0.801
																										C113.611,128.724,113.459,129.071,113.551,129.153z"/>
																								</g>
																							</g>
																						</g>
																					</g>
																				</g>
																			</g>
																		</g>
																	</g>
																</g>
															</g>
														</g>
													</g>
												</g>
											</g>
										</g>
									</g>
								</g>
							</g>
							<g>
								<g>
									<g>
										<g>
											<g>
												<g>
													<g>
														<g>
															<g>
																<g>
																	<g>
																		<g>
																			<g>
																				<g>
																					<g>
																						<g>
																							<g>
																								<path style="fill:#263238;" d="M130.31,133.404c-0.003,0.767,0.644,1.402,1.445,1.42
																									c0.8,0.018,1.451-0.588,1.454-1.355c0.003-0.767-0.644-1.403-1.443-1.421
																									C130.965,132.03,130.313,132.637,130.31,133.404z"/>
																							</g>
																						</g>
																					</g>
																				</g>
																			</g>
																		</g>
																	</g>
																</g>
															</g>
														</g>
													</g>
												</g>
											</g>
										</g>
									</g>
								</g>
								<g>
									<g>
										<g>
											<g>
												<g>
													<g>
														<g>
															<g>
																<g>
																	<g>
																		<g>
																			<g>
																				<g>
																					<g>
																						<g>
																							<g>
																								<g>
																									<path style="fill:#263238;" d="M128.906,128.963c0.186,0.183,1.261-0.664,2.821-0.709
																										c1.559-0.067,2.73,0.7,2.894,0.503c0.08-0.087-0.112-0.423-0.624-0.77
																										c-0.502-0.347-1.351-0.672-2.323-0.637c-0.972,0.036-1.779,0.419-2.238,0.801
																										C128.968,128.533,128.816,128.881,128.906,128.963z"/>
																								</g>
																							</g>
																						</g>
																					</g>
																				</g>
																			</g>
																		</g>
																	</g>
																</g>
															</g>
														</g>
													</g>
												</g>
											</g>
										</g>
									</g>
								</g>
							</g>
							<g>
								<g>
									<g>
										<g>
											<g>
												<g>
													<g>
														<g>
															<g>
																<g>
																	<g>
																		<g>
																			<g>
																				<g>
																					<g>
																						<g>
																							<g>
																								<path style="fill:#263238;" d="M123.603,140.719c0.005-0.089-0.971-0.226-2.55-0.378
																									c-0.4-0.029-0.78-0.096-0.855-0.366c-0.103-0.285,0.05-0.72,0.229-1.19c0.344-0.977,0.705-2,1.084-3.073
																									c1.502-4.374,2.575-7.965,2.399-8.024c-0.177-0.059-1.538,3.438-3.039,7.812
																									c-0.36,1.078-0.705,2.106-1.033,3.089c-0.137,0.458-0.38,0.98-0.158,1.571
																									c0.117,0.295,0.416,0.502,0.674,0.562c0.258,0.07,0.482,0.067,0.68,0.073
																									C122.618,140.832,123.6,140.808,123.603,140.719z"/>
																							</g>
																						</g>
																					</g>
																				</g>
																			</g>
																		</g>
																	</g>
																</g>
															</g>
														</g>
													</g>
												</g>
											</g>
										</g>
									</g>
								</g>
							</g>
							<g>
								<g>
									<g>
										<g>
											<g>
												<g>
													<g>
														<g>
															<g>
																<g>
																	<g>
																		<g>
																			<g>
																				<g>
																					<g>
																						<g>
																							<path style="fill:#EB996E;" d="M122.719,159.263c0,0,8.012,0.217,15.41-4.552c0,0-3.674,8.216-15.416,7.547
																								L122.719,159.263z"/>
																						</g>
																					</g>
																				</g>
																			</g>
																		</g>
																	</g>
																</g>
															</g>
														</g>
													</g>
												</g>
											</g>
										</g>
									</g>
								</g>
							</g>
							<g>
								<g>
									<g>
										<g>
											<g>
												<g>
													<g>
														<g>
															<g>
																<g>
																	<g>
																		<g>
																			<g>
																				<g>
																					<g>
																						<g>
																							<path style="fill:#EB996E;" d="M124.382,144.461c0.538-0.76,1.509-1.198,2.489-1.124
																								c0.68,0.052,1.375,0.357,1.803,0.896c0.429,0.539,0.54,1.319,0.182,1.857
																								c-0.403,0.606-1.279,0.77-2.03,0.582c-0.752-0.189-1.409-0.659-2.033-1.128
																								c-0.173-0.13-0.349-0.266-0.461-0.448c-0.111-0.182-0.141-0.424-0.016-0.581"/>
																						</g>
																					</g>
																				</g>
																			</g>
																		</g>
																	</g>
																</g>
															</g>
														</g>
													</g>
												</g>
											</g>
										</g>
									</g>
								</g>
							</g>
							<g>
								<g>
									<g>
										<g>
											<g>
												<g>
													<g>
														<g>
															<g>
																<g>
																	<g>
																		<g>
																			<g>
																				<g>
																					<g>
																						<g>
																							<g>
																								<path style="fill:#263238;" d="M128.232,141.655c-0.254-0.007-0.204,1.688-1.617,2.936
																									c-1.41,1.252-3.223,1.118-3.228,1.356c-0.02,0.107,0.412,0.316,1.176,0.313
																									c0.749,0.002,1.834-0.272,2.698-1.036c0.862-0.766,1.211-1.762,1.247-2.459
																									C128.55,142.055,128.348,141.641,128.232,141.655z"/>
																							</g>
																						</g>
																					</g>
																				</g>
																			</g>
																		</g>
																	</g>
																</g>
															</g>
														</g>
													</g>
												</g>
											</g>
										</g>
									</g>
								</g>
							</g>
						</g>
					</g>
				</g>
				<g>
					<g>
						<g>
							<g>
								<g>
									<g>
										<g>
											<g>
												<g>
													<g>
														<g>
															<g>
																<g>
																	<g>
																		<g>
																			<g>
																				<path style="fill:#263238;" d="M128.412,124.453c0.154,0.425,1.714,0.223,3.546,0.444
																					c1.837,0.184,3.315,0.721,3.558,0.34c0.108-0.182-0.149-0.581-0.747-0.993c-0.592-0.41-1.537-0.801-2.637-0.923
																					c-1.1-0.12-2.107,0.055-2.775,0.326C128.685,123.918,128.346,124.251,128.412,124.453z"/>
																			</g>
																		</g>
																	</g>
																</g>
															</g>
														</g>
													</g>
												</g>
											</g>
										</g>
									</g>
								</g>
							</g>
						</g>
					</g>
				</g>
				<g>
					<g>
						<g>
							<g>
								<g>
									<g>
										<g>
											<g>
												<g>
													<g>
														<g>
															<g>
																<g>
																	<g>
																		<g>
																			<g>
																				<path style="fill:#263238;" d="M112.289,125.688c0.332,0.33,1.493-0.13,2.923-0.259
																					c1.425-0.174,2.661,0.031,2.912-0.361c0.108-0.189-0.11-0.529-0.666-0.822
																					c-0.548-0.293-1.442-0.497-2.424-0.394c-0.981,0.105-1.809,0.492-2.278,0.893
																					C112.279,125.148,112.142,125.526,112.289,125.688z"/>
																			</g>
																		</g>
																	</g>
																</g>
															</g>
														</g>
													</g>
												</g>
											</g>
										</g>
									</g>
								</g>
							</g>
						</g>
					</g>
				</g>
			</g>
			<g>
				<g>
					<g>
						<path style="fill:#263238;" d="M106.719,114.418c-2.322-1.47-3.499-4.474-2.963-7.169c0.536-2.696,2.668-4.968,5.272-5.847
							c0.53-0.179,1.077-0.288,1.629-0.359c1.046-0.655,2.251-1.056,3.484-1.116c0.127-1.463,1.395-2.633,2.799-3.061
							c1.404-0.427,2.918-0.249,4.359,0.032c1.388-1.843,3.681-2.969,5.988-2.94c2.307,0.029,4.571,1.211,5.913,3.088
							c1.58-1.006,3.639-1.217,5.39-0.552c1.751,0.665,3.152,2.189,3.666,3.99c1.636-0.008,3.264,0.695,4.379,1.892
							c0.419,0.45,0.763,0.968,1.023,1.525c0.532,0.643,0.933,1.393,1.143,2.202c2.753,0.216,5.266,2.278,6.015,4.935
							c0.749,2.658-0.317,5.729-2.552,7.351c1.415,1.308,2.164,3.301,1.962,5.216c-0.202,1.916-1.351,3.708-3.008,4.692
							c0.723,2.02,0.569,4.338-0.416,6.245c-0.425,0.823-1.09,1.609-1.933,1.916c-0.035,0.15-0.082,0.296-0.161,0.43
							c-0.641,1.081-2.322,0.672-3.33-0.078c-2.45-1.826-3.827-4.769-4.6-7.725c-0.773-2.956-1.035-6.025-1.779-8.989
							c-0.016-0.066-0.034-0.136-0.052-0.21c-0.314-1.241-0.914-2.376-1.728-3.335c-0.864,0.644-1.709,1.317-2.657,1.825
							c-3.378,1.81-7.933,1.054-10.544-1.751c-2.269,2.031-5.265,3.233-8.308,3.333c-3.044,0.1-6.074-0.374-8.471-2.252
							c-0.453-0.355-1.077-0.987-1.385-1.86C105.662,115.303,106.173,114.602,106.719,114.418z"/>
					</g>
				</g>
			</g>
			<g>
				<g>
					<g>
						<g>
							<g>
								<g>
									<g>
										<g>
											<g>
												<g>
													<path style="fill:#FFBE9D;" d="M145.861,133.271c0.147-0.084,6.001-2.517,6.483,3.676
														c0.482,6.193-5.835,5.4-5.86,5.223C146.459,141.994,145.861,133.271,145.861,133.271z"/>
												</g>
											</g>
										</g>
									</g>
								</g>
							</g>
						</g>
					</g>
				</g>
			</g>
			<g>
				<g>
					<g>
						<g>
							<g>
								<g>
									<g>
										<g>
											<g>
												<g>
													<g>
														<path style="fill:#EB996E;" d="M148.193,139.677c0.026-0.022,0.114,0.067,0.303,0.137
															c0.184,0.067,0.494,0.1,0.808-0.046c0.636-0.291,1.106-1.373,1.049-2.492c-0.028-0.565-0.188-1.092-0.422-1.521
															c-0.224-0.438-0.542-0.732-0.876-0.765c-0.334-0.05-0.552,0.165-0.614,0.345c-0.07,0.18-0.021,0.3-0.052,0.314
															c-0.016,0.017-0.141-0.093-0.111-0.353c0.016-0.125,0.077-0.277,0.213-0.407c0.139-0.133,0.353-0.211,0.584-0.204
															c0.48-0.004,0.944,0.402,1.202,0.873c0.284,0.471,0.477,1.063,0.508,1.697c0.057,1.251-0.49,2.469-1.365,2.797
															c-0.427,0.148-0.801,0.045-1-0.087C148.216,139.826,148.173,139.69,148.193,139.677z"/>
													</g>
												</g>
											</g>
										</g>
									</g>
								</g>
							</g>
						</g>
					</g>
				</g>
			</g>
			<g>
				<g>
					<g>
						<g>
							<path style="fill:#455A64;" d="M104.037,106.213c-0.006-0.001-0.022,0.049-0.049,0.149c-0.029,0.1-0.059,0.251-0.086,0.451
								c-0.05,0.398-0.076,1.007,0.115,1.751c0.187,0.735,0.603,1.626,1.422,2.348c0.804,0.717,2.003,1.264,3.371,1.222
								l-0.116-0.091c0.355,1.77,1.274,3.684,2.821,5.271c0.775,0.785,1.713,1.494,2.824,1.929c1.101,0.464,2.375,0.536,3.592,0.361
								c1.21-0.169,2.354-0.544,3.402-1.029c1.044-0.491,2.019-1.074,2.783-1.86l-0.187,0.01c1.66,1.41,3.529,2.355,5.333,2.646
								c1.814,0.265,3.429-0.111,4.646-0.613c1.227-0.509,2.073-1.161,2.607-1.636c0.266-0.241,0.462-0.437,0.585-0.577
								c0.125-0.139,0.187-0.213,0.181-0.218c-0.016-0.016-0.278,0.271-0.824,0.728c-0.548,0.449-1.398,1.071-2.612,1.549
								c-1.2,0.472-2.796,0.816-4.547,0.542c-1.745-0.296-3.577-1.237-5.193-2.622l-0.096-0.083l-0.091,0.092
								c-0.72,0.736-1.681,1.314-2.703,1.789c-1.027,0.473-2.149,0.838-3.324,1.002c-1.188,0.169-2.395,0.101-3.451-0.34
								c-1.066-0.414-1.978-1.098-2.736-1.858c-1.514-1.538-2.428-3.408-2.79-5.127l-0.02-0.095l-0.096,0.004
								c-1.299,0.054-2.459-0.455-3.242-1.133c-0.798-0.681-1.218-1.533-1.418-2.244c-0.204-0.72-0.201-1.316-0.172-1.711
								C104.002,106.424,104.053,106.217,104.037,106.213z"/>
						</g>
					</g>
				</g>
			</g>
			<g>
				<g>
					<g>
						<g>
							<path style="fill:#455A64;" d="M147.909,105.804c-0.045,0.018,0.38,0.729,0.663,2.098c0.275,1.344,0.34,3.44-0.689,5.573
								l-0.044,0.092l0.081,0.063c0.751,0.583,1.397,1.423,1.788,2.426c0.39,1.002,0.509,2.17,0.226,3.297
								c-0.367,1.48-1.319,2.729-2.458,3.44l-0.11,0.069l0.065,0.114c0.721,1.252,0.988,2.626,0.936,3.829
								c-0.031,1.211-0.352,2.254-0.726,3.056c-0.771,1.617-1.692,2.253-1.637,2.296c0.005,0.006,0.058-0.034,0.156-0.116
								c0.094-0.086,0.249-0.199,0.417-0.38c0.345-0.35,0.806-0.915,1.215-1.727c0.404-0.809,0.755-1.874,0.804-3.12
								c0.07-1.237-0.189-2.663-0.934-3.974l-0.045,0.182c1.203-0.741,2.204-2.046,2.59-3.601c0.298-1.186,0.169-2.418-0.245-3.464
								c-0.414-1.049-1.097-1.923-1.89-2.527l0.036,0.155c1.04-2.211,0.931-4.357,0.609-5.714c-0.161-0.69-0.369-1.211-0.528-1.555
								c-0.078-0.173-0.153-0.299-0.199-0.385C147.943,105.843,147.915,105.801,147.909,105.804z"/>
						</g>
					</g>
				</g>
			</g>
			<g>
				<g>
					<g>
						<g>
							<path style="fill:#263238;" d="M149.766,141.757c-0.05,0.018,0.194,0.417,0.19,1.106c-0.009,0.334-0.098,0.753-0.385,1.073
								c-0.279,0.317-0.776,0.535-1.25,0.437c-0.48-0.094-0.769-0.549-0.835-0.975c-0.079-0.434,0.023-0.838,0.146-1.16
								c0.262-0.643,0.511-1.021,0.466-1.045c-0.023-0.014-0.325,0.311-0.651,0.967c-0.152,0.326-0.295,0.775-0.219,1.28
								c0.039,0.248,0.125,0.511,0.299,0.739c0.169,0.227,0.434,0.41,0.734,0.471c0.605,0.119,1.178-0.153,1.506-0.543
								c0.335-0.402,0.404-0.881,0.388-1.247C150.103,142.107,149.781,141.738,149.766,141.757z"/>
						</g>
					</g>
				</g>
			</g>
		</g>
		<g>
			<g>
				<g>
					<g>
						<g>
							<g>
								<g>
									<g>
										<path style="fill:#FF725E;" d="M146.488,424.025l0.009,23.353l-5.319,18.473c-0.383,1.331,0.441,2.709,1.795,3.001l0,0
											c0.758,0.163,1.543-0.045,2.115-0.57c3.64-3.337,16.968-15.678,16.871-17.387c-0.112-1.979,1.626-24.633,1.626-24.633
											L146.488,424.025z"/>
									</g>
								</g>
							</g>
						</g>
					</g>
					<g>
						<g>
							<g>
								<g>
									<g>
										<path style="fill:#263238;" d="M142.974,468.851l19.022-19.533l-0.022,0.989c-0.019,0.855-0.337,1.677-0.906,2.316
											c-1.522,1.709-5.826,6.335-15.908,15.66C144.573,468.826,143.75,469.04,142.974,468.851L142.974,468.851z"/>
									</g>
								</g>
							</g>
						</g>
					</g>
					<g style="opacity:0.6;">
						<g>
							<g>
								<g>
									<g>
										<g>
											<path style="fill:#FFFFFF;" d="M157.374,441.679c-0.594,0.391-0.805,1.272-0.439,1.881
												c0.367,0.609,1.26,0.832,1.861,0.451c0.601-0.381,0.887-1.43,0.454-1.994c-0.433-0.565-1.496-0.769-1.988-0.255"/>
										</g>
									</g>
								</g>
							</g>
						</g>
					</g>
					<g>
						<g>
							<g>
								<g>
									<g>
										<g>
											<path style="fill:#263238;" d="M148.54,458.77c-0.133,0.062-0.632-1.173-2.006-1.862c-1.353-0.73-2.65-0.43-2.676-0.575
												c-0.019-0.058,0.281-0.233,0.829-0.297c0.543-0.068,1.331,0.027,2.084,0.417c0.751,0.393,1.281,0.984,1.538,1.467
												C148.569,458.407,148.598,458.753,148.54,458.77z"/>
										</g>
									</g>
								</g>
							</g>
						</g>
					</g>
					<g>
						<g>
							<g>
								<g>
									<g>
										<g>
											<path style="fill:#263238;" d="M146.806,461.859c-0.113,0.099-0.846-0.677-2.045-1.05
												c-1.192-0.4-2.239-0.199-2.273-0.345c-0.065-0.12,1.07-0.591,2.431-0.143
												C146.284,460.754,146.929,461.799,146.806,461.859z"/>
										</g>
									</g>
								</g>
							</g>
						</g>
					</g>
					<g>
						<g>
							<g>
								<g>
									<g>
										<g>
											<path style="fill:#263238;" d="M151.725,454.833c-0.112,0.108-1.232-1.091-3.047-1.834
												c-1.804-0.772-3.444-0.729-3.445-0.885c-0.035-0.125,1.707-0.411,3.643,0.412
												C150.82,453.328,151.839,454.77,151.725,454.833z"/>
										</g>
									</g>
								</g>
							</g>
						</g>
					</g>
					<g>
						<g>
							<g>
								<g>
									<g>
										<g>
											<path style="fill:#263238;" d="M152.316,447.734c-0.065,0.138-1.343-0.43-3.02-0.528
												c-1.676-0.121-3.016,0.275-3.063,0.129c-0.062-0.116,1.296-0.767,3.097-0.641
												C151.131,446.804,152.392,447.627,152.316,447.734z"/>
										</g>
									</g>
								</g>
							</g>
						</g>
					</g>
					<g>
						<g>
							<g>
								<g>
									<g>
										<g>
											<path style="fill:#263238;" d="M152.487,440.879c-0.075,0.133-1.355-0.674-3.129-0.633
												c-1.775,0.002-3.035,0.84-3.113,0.708c-0.037-0.049,0.224-0.337,0.77-0.636c0.541-0.299,1.382-0.572,2.337-0.585
												c0.956-0.01,1.803,0.242,2.351,0.528C152.254,440.547,152.522,440.828,152.487,440.879z"/>
										</g>
									</g>
								</g>
							</g>
						</g>
					</g>
					<g>
						<g>
							<g>
								<g>
									<g>
										<g>
											<path style="fill:#263238;" d="M149.428,438.942c-0.03,0-0.076-0.315-0.012-0.884c0.065-0.564,0.247-1.393,0.754-2.297
												c0.262-0.428,0.537-0.98,1.196-1.273c0.327-0.148,0.809-0.077,1.079,0.238c0.268,0.307,0.346,0.692,0.346,1.063
												c-0.058,1.481-1.362,2.886-3.034,3.062c-1.678,0.146-3.172-0.844-3.806-2.138c-0.138-0.335-0.229-0.743-0.039-1.134
												c0.187-0.394,0.665-0.542,0.998-0.477c0.691,0.119,1.12,0.528,1.52,0.834c0.79,0.665,1.273,1.356,1.552,1.85
												c0.281,0.497,0.368,0.803,0.341,0.815c-0.083,0.059-0.564-1.16-2.12-2.381c-0.393-0.282-0.845-0.637-1.343-0.695
												c-0.243-0.029-0.454,0.063-0.545,0.257c-0.094,0.186-0.051,0.48,0.069,0.743c0.537,1.06,1.905,1.961,3.321,1.816
												c1.41-0.134,2.555-1.37,2.613-2.562c0.01-0.287-0.06-0.578-0.21-0.752c-0.147-0.171-0.376-0.222-0.593-0.14
												c-0.459,0.173-0.774,0.656-1.032,1.059C149.46,437.638,149.531,438.968,149.428,438.942z"/>
										</g>
									</g>
								</g>
							</g>
						</g>
					</g>
				</g>
			</g>
			<g>
				<g>
					<g>
						<g>
							<g>
								<g>
									<g>
										<g>
											<g>
												<g>
													<g>
														<g>
															<path style="fill:#FF725E;" d="M124.507,424.364l0.341,19.299c0,0-19.502,6.828-19.786,10.401l37.444,0.683
																l0.703-30.092L124.507,424.364z"/>
														</g>
													</g>
												</g>
											</g>
										</g>
									</g>
								</g>
							</g>
						</g>
					</g>
					<g>
						<g>
							<g>
								<g>
									<g>
										<g>
											<g>
												<g>
													<g>
														<g>
															<g>
																<path style="fill:#E0E0E0;" d="M136.455,442.252c0.721,0.211,1.207,1.035,1.025,1.764
																	c-0.182,0.729-1.015,1.23-1.74,1.032c-0.725-0.198-1.338-1.17-1.076-1.874c0.262-0.704,1.273-1.239,1.929-0.872"/>
															</g>
														</g>
													</g>
												</g>
											</g>
										</g>
									</g>
								</g>
							</g>
						</g>
					</g>
					<g>
						<g>
							<g>
								<g>
									<g>
										<g>
											<g>
												<g>
													<g>
														<g>
															<path style="fill:#263238;" d="M142.505,454.747l-0.048-3.036l-35.882,0.48c0,0-1.68,0.695-1.513,1.872
																L142.505,454.747z"/>
														</g>
													</g>
												</g>
											</g>
										</g>
									</g>
								</g>
							</g>
						</g>
					</g>
					<g>
						<g>
							<g>
								<g>
									<g>
										<g>
											<g>
												<g>
													<g>
														<g>
															<g>
																<path style="fill:#263238;" d="M124.244,443.461c0.003,0.183,0.915,0.283,1.804,0.887
																	c0.905,0.581,1.354,1.382,1.524,1.312c0.169-0.032-0.084-1.131-1.173-1.843
																	C125.317,443.095,124.208,443.293,124.244,443.461z"/>
															</g>
														</g>
													</g>
												</g>
											</g>
										</g>
									</g>
								</g>
							</g>
						</g>
					</g>
					<g>
						<g>
							<g>
								<g>
									<g>
										<g>
											<g>
												<g>
													<g>
														<g>
															<g>
																<path style="fill:#263238;" d="M120.287,445.014c-0.045,0.176,0.741,0.502,1.348,1.286
																	c0.63,0.767,0.771,1.606,0.954,1.601c0.171,0.032,0.317-1.036-0.456-1.998
																	C121.369,444.936,120.294,444.84,120.287,445.014z"/>
															</g>
														</g>
													</g>
												</g>
											</g>
										</g>
									</g>
								</g>
							</g>
						</g>
					</g>
					<g>
						<g>
							<g>
								<g>
									<g>
										<g>
											<g>
												<g>
													<g>
														<g>
															<g>
																<path style="fill:#263238;" d="M117.971,449.674c0.166,0.042,0.437-0.867-0.015-1.877
																	c-0.444-1.013-1.299-1.424-1.379-1.273c-0.106,0.148,0.439,0.696,0.797,1.531
																	C117.751,448.88,117.789,449.652,117.971,449.674z"/>
															</g>
														</g>
													</g>
												</g>
											</g>
										</g>
									</g>
								</g>
							</g>
						</g>
					</g>
					<g>
						<g>
							<g>
								<g>
									<g>
										<g>
											<g>
												<g>
													<g>
														<g>
															<g>
																<path style="fill:#263238;" d="M124.654,439.055c0.074,0.168,0.917-0.069,1.949,0.02
																	c1.034,0.068,1.832,0.43,1.93,0.275c0.108-0.131-0.665-0.821-1.882-0.909
																	C125.436,438.343,124.567,438.909,124.654,439.055z"/>
															</g>
														</g>
													</g>
												</g>
											</g>
										</g>
									</g>
								</g>
							</g>
						</g>
					</g>
				</g>
			</g>
			<g>
				<g>
					<path style="fill:#455A64;" d="M176.398,257.209c0,0,6.114,17.977,4.71,37.981c-0.566,8.061-9.26,66.944-9.26,66.944
						l-7.15,77.102l-23.806-0.771c0,0-2.391-79.501-2.055-80.51c0.336-1.009,0-23.826,0-23.826l1.893-42.99v-22.876L176.398,257.209
						z"/>
				</g>
				<g>
					<path style="fill:#455A64;" d="M107,248.716c0,0-9.981,16.985-8.85,43.432c0.432,10.104,16.581,94.217,16.581,94.217
						l9.918,55.226l18.723,1.521l-2.641-150.627v-24.221L107,248.716z"/>
				</g>
				<g>
					<g>
						<path style="fill:#263238;" d="M138.41,297.209c-0.075,0.112-1.942-1.042-3.931-2.864c-1.996-1.816-3.315-3.57-3.21-3.655
							c0.113-0.097,1.588,1.486,3.556,3.276C136.785,295.762,138.495,297.088,138.41,297.209z"/>
					</g>
				</g>
			</g>
			<g>
				<g>
					<path style="fill:#263238;" d="M164.824,439.236c0,0.008-0.13,0.012-0.384,0.012c-0.276-0.003-0.65-0.007-1.129-0.013
						c-1.019-0.022-2.483-0.055-4.369-0.096c-3.835-0.106-9.377-0.258-16.318-0.45l-0.166-0.005l0-0.167
						c-0.041-15.87-0.928-39.509-1.907-65.848c-0.883-24.314-1.507-46.344-1.08-62.293c0.075-1.992,0.146-3.889,0.214-5.685
						c0.018-0.449,0.036-0.891,0.054-1.327c0.05-0.439,0.091-0.887,0.203-1.296c0.18-0.837,0.428-1.622,0.676-2.376
						c1.001-3.015,2.074-5.525,2.934-7.582c0.874-2.052,1.587-3.629,2.079-4.695c0.243-0.514,0.432-0.915,0.57-1.208
						c0.132-0.27,0.212-0.403,0.212-0.403s-0.048,0.147-0.164,0.425c-0.127,0.298-0.3,0.706-0.523,1.228
						c-0.464,1.105-1.132,2.695-1.987,4.73c-0.83,2.065-1.876,4.588-2.844,7.594c-0.48,1.517-0.946,3.105-0.878,4.924
						c-0.056,1.794-0.115,3.689-0.177,5.679c-0.333,15.934,0.349,37.953,1.232,62.266c0.98,26.337,1.799,49.986,1.731,65.867
						l-0.166-0.172c6.939,0.258,12.48,0.464,16.313,0.607c1.884,0.081,3.347,0.143,4.366,0.187c0.478,0.026,0.851,0.046,1.127,0.06
						C164.695,439.215,164.824,439.228,164.824,439.236z"/>
				</g>
			</g>
		</g>
		<g>
			<path style="fill:#FF725E;" d="M109.73,167.524l12.656-3.215c7.351,4.579,19.364,5.939,24.204-2.16l17.11,2.619l2.535,27.593
				l0.082,33.778c0,0,8.849,19.749,13.244,43.215c-38.832,9.675-67.387,10.704-78.512-6.544c0,0,4.382-13.905,8.68-24.509
				c3.37-8.313,1.112-14.969,0.682-17.371c-0.156-0.872,0.102-0.558,0-1.437l-3.285-16.53L109.73,167.524z"/>
		</g>
		<g>
			<g>
				<g style="opacity:0.3;">
					<g>
						<path d="M107.021,235.007c5.756-3.145,10.985-7.25,15.405-12.096c1.86-2.038,3.588-4.216,5.695-5.997
							c2.108-1.781,4.684-3.165,7.441-3.258c4.321-0.145,8.057,2.8,11.362,5.587c3.656,3.083,7.311,6.165,10.967,9.248
							c0.932,0.786,1.921,1.599,3.118,1.825c1.197,0.226,2.939,0.446,3.199-0.745c-1.758-1.186-6.08-4.871-8.552-7.339
							c-3.688-3.682-7.75-6.462-11.438-10.144c-1.708-1.706-3.526-3.646-3.643-6.058c-0.041-0.846,0.121-1.764-0.318-2.489
							c-0.575-0.947-1.867-1.091-2.975-1.133c-2.178-0.081-4.455-0.143-6.422,0.796c-2.719,1.298-4.232,4.182-5.692,6.817
							c-4.968,8.971-11.4,17.131-18.962,24.057"/>
					</g>
				</g>
				<g>
					<path style="fill:#FF725E;" d="M110.729,167.511c0,0-12.071,0.853-16.576,17.882c-4.505,17.028-14.067,38.858-11.066,46.55
						c0.844,2.163,4.065,6.582,6.119,7.65c5.976,3.108,13.274-1.224,18.161-5.859l14.223-16.3l3.113-4.39l-11.641-9.851
						l-5.533,4.479l3.351-13.094L110.729,167.511z"/>
				</g>
				<g>
					<path style="fill:#FF725E;" d="M163.7,164.915c0,0,9.675-0.41,16.434,13.826c7.173,15.108,8.504,41.898,6.06,49.915
						c-2.274,7.457-16.392,8.646-19.497,6.128c-2.937-2.382-29.684-28.792-29.684-28.792l12.095-10.23l17.149,11.937l-3.464-19.75
						L163.7,164.915z"/>
				</g>
				<g>
					<g>
						<path style="fill:#263238;" d="M162.794,187.949c0.008-0.001,0.036,0.112,0.083,0.336c0.049,0.246,0.115,0.577,0.198,0.998
							c0.169,0.907,0.412,2.205,0.724,3.875c0.616,3.41,1.507,8.337,2.623,14.512l0.071,0.395l-0.331-0.229
							c-4.8-3.323-10.632-7.359-17.18-11.892l0.27-0.013c-3.717,3.154-7.794,6.612-12.079,10.248l0.014-0.361
							c6.396,6.261,13.397,13.114,20.696,20.259c2.134,2.051,4.243,4.077,6.321,6.074c0.526,0.491,1.05,0.98,1.571,1.468
							c0.533,0.462,1.034,1.005,1.608,1.291c1.212,0.592,2.639,0.74,4,0.805c2.751,0.07,5.486-0.363,7.976-1.265
							c2.47-0.89,4.793-2.353,6.035-4.533c0.607-1.078,0.836-2.332,1.069-3.542c0.223-1.219,0.333-2.442,0.444-3.646
							c0.153-2.415,0.215-4.769,0.147-7.045c-0.101-4.551-0.496-8.782-0.992-12.623c-0.484-3.845-1.169-7.285-1.792-10.299
							c-0.683-3.001-1.364-5.565-1.987-7.64c-0.326-1.029-0.617-1.946-0.87-2.746c-0.264-0.792-0.522-1.449-0.711-1.988
							c-0.185-0.52-0.329-0.926-0.435-1.224c-0.095-0.277-0.14-0.421-0.132-0.424c0.008-0.003,0.07,0.133,0.181,0.404
							c0.118,0.294,0.278,0.694,0.484,1.207c0.205,0.533,0.48,1.186,0.759,1.974c0.267,0.797,0.574,1.711,0.918,2.737
							c0.654,2.071,1.366,4.633,2.077,7.636c0.652,3.015,1.364,6.461,1.873,10.314c0.521,3.849,0.938,8.091,1.059,12.663
							c0.078,2.285,0.025,4.653-0.122,7.088c-0.108,1.217-0.215,2.451-0.439,3.693c-0.072,0.626-0.264,1.24-0.405,1.865
							c-0.129,0.627-0.404,1.247-0.708,1.829c-1.326,2.334-3.753,3.845-6.283,4.766c-2.557,0.93-5.337,1.375-8.164,1.308
							c-1.407-0.071-2.861-0.201-4.219-0.857c-0.342-0.155-0.657-0.417-0.914-0.648c-0.271-0.238-0.547-0.474-0.806-0.72
							c-0.524-0.489-1.05-0.98-1.578-1.472c-2.081-1.998-4.192-4.025-6.328-6.076c-7.33-7.118-14.312-13.994-20.678-20.284
							l-0.191-0.189l0.205-0.173c4.296-3.623,8.383-7.069,12.109-10.212l0.131-0.11l0.139,0.098
							c6.524,4.567,12.335,8.634,17.118,11.982l-0.259,0.165c-1.052-6.187-1.891-11.122-2.473-14.539
							c-0.275-1.677-0.489-2.98-0.638-3.89c-0.065-0.425-0.115-0.758-0.153-1.006C162.798,188.067,162.786,187.95,162.794,187.949z"
							/>
					</g>
				</g>
				<g>
					<g>
						<path style="fill:#263238;" d="M111.754,190.752c0.17,0.033-0.574,3.771-1.775,8.294c-0.58,2.167-1.105,4.128-1.549,5.787
							c-0.408,1.477-0.651,2.392-0.722,2.379c-0.17-0.033,0.574-3.771,1.775-8.295c0.58-2.166,1.105-4.127,1.549-5.786
							C111.439,191.654,111.682,190.739,111.754,190.752z"/>
					</g>
				</g>
				<g>
					<g>
						<path style="fill:#263238;" d="M97.822,215.529c-0.005-0.007,0.079-0.086,0.25-0.235c0.191-0.163,0.444-0.378,0.766-0.651
							c0.703-0.583,1.704-1.413,2.985-2.476c2.635-2.157,6.422-5.257,11.13-9.111l0.108-0.088l0.111,0.087
							c3.517,2.749,7.594,5.936,12.079,9.443l0.168,0.131l-0.127,0.172c-1.104,1.498-2.294,3.111-3.515,4.769l-0.006,0.007
							l-0.007,0.008c-4.478,5.118-9.422,10.768-14.631,16.719l-0.008,0.009l-0.008,0.008c-2.1,1.979-4.587,3.802-7.404,5.111
							c-2.272,1.045-4.781,1.734-7.272,1.424c-0.622-0.061-1.221-0.231-1.815-0.415c-0.594-0.229-1.132-0.545-1.625-0.904
							c-0.992-0.714-1.851-1.558-2.641-2.441c-1.551-1.786-2.916-3.709-3.704-5.896c-0.108-0.269-0.156-0.564-0.229-0.846
							c-0.038-0.286-0.053-0.571-0.08-0.855l-0.071-0.851c-0.005-0.282,0.02-0.561,0.028-0.84c0.01-1.122,0.177-2.207,0.317-3.283
							c0.689-4.281,1.84-8.228,2.912-11.909c1.1-3.675,2.206-7.07,3.212-10.171c2.03-6.195,3.661-11.209,4.719-14.696
							c0.538-1.741,0.933-3.099,1.199-4.021c0.132-0.439,0.237-0.785,0.315-1.045c0.074-0.235,0.116-0.354,0.124-0.352
							c0.009,0.002-0.017,0.126-0.074,0.365c-0.066,0.263-0.154,0.614-0.266,1.059c-0.234,0.931-0.599,2.299-1.108,4.05
							c-1,3.507-2.58,8.542-4.565,14.75c-0.983,3.107-2.069,6.507-3.149,10.18c-1.053,3.677-2.184,7.623-2.853,11.859
							c-0.134,1.061-0.296,2.135-0.302,3.225c-0.007,0.272-0.031,0.546-0.026,0.818l0.071,0.813
							c0.026,0.271,0.041,0.546,0.076,0.815c0.069,0.259,0.11,0.524,0.214,0.78c0.747,2.067,2.096,3.979,3.614,5.716
							c1.554,1.679,3.348,3.434,5.77,3.588c2.35,0.294,4.776-0.361,6.994-1.384c2.75-1.277,5.205-3.072,7.269-5.015l-0.016,0.017
							c5.221-5.941,10.177-11.58,14.666-16.688l-0.012,0.015c1.229-1.653,2.424-3.262,3.534-4.756l0.041,0.303
							c-4.465-3.532-8.524-6.743-12.025-9.512l0.218-0.002c-4.75,3.802-8.571,6.86-11.23,8.988
							c-1.307,1.032-2.326,1.837-3.043,2.404c-0.334,0.257-0.597,0.46-0.796,0.613C97.922,215.469,97.827,215.536,97.822,215.529z"
							/>
					</g>
				</g>
				<g>
					<g>
						<path style="fill:#263238;" d="M178.936,217.486c-0.134,0.107-2.219-2.939-5.782-5.66c-3.538-2.755-7.014-3.998-6.944-4.154
							c0.02-0.058,0.912,0.175,2.277,0.769c1.363,0.591,3.181,1.585,4.986,2.973c1.801,1.392,3.224,2.898,4.142,4.066
							C178.535,216.647,178.987,217.451,178.936,217.486z"/>
					</g>
				</g>
			</g>
			<g>
				<g>
					<path style="fill:#FFBE9D;" d="M114.123,204.22l-0.206-7.275l-4.534-6.465l1.804-9.053c0,0,2.021-0.395,1.791,1.406
						c-0.23,1.801-0.167,6.255-0.167,6.255l1.382,1.615l0.877-8.893l4.633-4.524c0,0,1.379,1.484,0.327,3.572
						c-1.052,2.088-1.939,2.89-1.939,2.89l-0.322,5.581l1.374,0.176l0.659-5.146l6.802-6.844c0,0,0.577,0.597-0.362,2.83
						c-0.94,2.233-2.378,4.272-2.378,4.272l0.885,9.659l1.786,1.144l1.227-1.412l3.75-5.796c0,0,0.933-0.142,1.366,0.567
						c0.432,0.709-2.14,5.479-2.384,6.363c-0.244,0.884,2.019,7.058,0.396,9.858l-6.829,6.864L114.123,204.22z"/>
				</g>
				<g>
					<polygon style="fill:#263238;" points="123.675,169.547 119.816,199.693 136.96,201.888 140.759,172.221 					"/>
				</g>
				<g>
					<g>
						<g>
							<path style="fill:#FFBE9D;" d="M139.995,178.185c0,0,2.76,0.353,2.753,2.445c-0.006,2.091-0.122,2.992,1.416,5.281
								c1.538,2.289,3.237,4.337,3.063,8.761l0.12,2.256l-8.788,7.226c0,0-12.753-1.894-14.271-2.612
								c-1.517-0.717-2.896-2.201-2.896-2.201l-1.109-5.634c0,0,0.814-1.134,1.763,0.587c0.949,1.721,2.688,3.775,2.688,3.775
								l3.775,0.875l1.913-0.67l-6.681-3.993c0,0-4.784-3.489-4.701-4.132c0.082-0.643,0.499-2.102,0.499-2.102
								s-0.73-1.196,0.094-2.529c0.825-1.333,3.216,0.412,3.216,0.412s7.469,3.964,8.61,4.241c1.141,0.277,2.83,0.362,2.83,0.362
								l-10.593-8.156c0,0,0.165-1.286,2.414-0.475c2.25,0.811,8.851,4.402,10.105,4.824c1.254,0.422,2.726-0.305,2.726-0.305
								L139.995,178.185z"/>
						</g>
						<g>
							<g>
								<path style="fill:#EB996E;" d="M139.995,178.185c0,0-0.011,0.2-0.049,0.565c-0.043,0.389-0.102,0.921-0.177,1.605
									c-0.166,1.42-0.405,3.462-0.71,6.079l-0.008,0.065l-0.058,0.027c-0.49,0.227-1.024,0.387-1.61,0.445
									c-0.583,0.077-1.232-0.076-1.784-0.351c-1.129-0.509-2.307-1.108-3.57-1.735c-1.261-0.627-2.595-1.299-4.017-1.964
									c-0.71-0.326-1.444-0.676-2.205-0.923c-0.379-0.116-0.779-0.201-1.155-0.164c-0.374,0.019-0.706,0.257-0.764,0.566
									l-0.074-0.179c3.189,2.443,6.77,5.186,10.613,8.13l0.598,0.458l-0.748-0.051c-0.987-0.068-1.973-0.137-2.998-0.403
									c-1.001-0.361-1.891-0.827-2.838-1.281c-1.87-0.924-3.772-1.909-5.708-2.928l-0.012-0.006l-0.018-0.012
									c-0.381-0.264-0.817-0.509-1.265-0.681c-0.443-0.166-0.946-0.262-1.301-0.081c-0.319,0.182-0.547,0.706-0.623,1.159
									c-0.076,0.465,0.021,0.991,0.237,1.391l0.054,0.101l-0.027,0.099c-0.176,0.641-0.36,1.31-0.475,1.965
									c-0.089,0.094,0.236,0.424,0.449,0.642c0.237,0.242,0.499,0.473,0.763,0.703c1.064,0.914,2.211,1.79,3.375,2.65
									l-0.019-0.013c1.59,0.95,3.286,1.964,4.998,2.987c0.565,0.337,1.127,0.674,1.682,1.006l0.47,0.281l-0.516,0.181
									c-0.644,0.226-1.279,0.448-1.913,0.67l-0.07,0.025l-0.072-0.017c-1.268-0.294-2.526-0.587-3.774-0.876l-0.084-0.02
									l-0.053-0.064c-0.759-0.916-1.468-1.849-2.114-2.828c-0.33-0.475-0.599-1.044-0.901-1.442
									c-0.161-0.192-0.355-0.356-0.533-0.366c-0.168-0.034-0.38,0.099-0.505,0.256l0.042-0.195
									c0.375,1.911,0.743,3.789,1.104,5.635l-0.061-0.12c0.547,0.568,1.157,1.098,1.795,1.545
									c0.321,0.223,0.652,0.427,0.996,0.591c0.331,0.139,0.709,0.234,1.086,0.33c1.522,0.356,3.047,0.63,4.538,0.898
									c2.986,0.527,5.864,0.984,8.603,1.403l-0.168,0.047c3.201-2.617,6.146-5.024,8.809-7.201l-0.066,0.15
									c-0.04-0.812-0.077-1.543-0.112-2.256l0-0.009l0-0.008c0.06-1.474-0.087-2.882-0.49-4.138
									c-0.395-1.261-1.039-2.342-1.683-3.317c-0.644-0.975-1.301-1.867-1.717-2.803c-0.437-0.931-0.527-1.895-0.513-2.714
									c-0.002-0.824,0.097-1.569-0.258-2.09c-0.32-0.525-0.792-0.81-1.169-0.995C140.45,178.248,139.987,178.211,139.995,178.185
									c0,0,0.465-0.004,1.27,0.334c0.391,0.176,0.892,0.452,1.251,1.008c0.163,0.278,0.305,0.619,0.308,0.999
									c0.02,0.371,0.006,0.755,0.016,1.165c0.003,0.817,0.102,1.725,0.535,2.618c0.415,0.899,1.072,1.771,1.733,2.747
									c0.659,0.975,1.332,2.076,1.752,3.373c0.428,1.293,0.59,2.743,0.54,4.248l0-0.016c0.041,0.713,0.082,1.443,0.129,2.255
									l0.005,0.091l-0.071,0.059c-2.65,2.192-5.581,4.617-8.767,7.252l-0.074,0.061l-0.095-0.014
									c-2.745-0.407-5.625-0.853-8.62-1.37c-1.497-0.264-3.022-0.532-4.571-0.89c-0.386-0.099-0.779-0.192-1.182-0.361
									c-0.374-0.178-0.726-0.393-1.064-0.627c-0.675-0.472-1.294-1.006-1.878-1.609l-0.047-0.049l-0.014-0.071
									c-0.365-1.845-0.736-3.722-1.114-5.633l-0.022-0.113l0.065-0.082c0.22-0.28,0.551-0.506,0.965-0.463
									c0.405,0.045,0.666,0.312,0.87,0.545c0.389,0.52,0.602,1.01,0.935,1.485c0.63,0.953,1.336,1.882,2.079,2.776l-0.137-0.083
									c1.248,0.289,2.507,0.581,3.775,0.874l-0.142,0.008c0.633-0.222,1.268-0.445,1.912-0.671l-0.047,0.462
									c-0.555-0.332-1.118-0.668-1.682-1.006c-1.712-1.024-3.407-2.038-4.998-2.988l-0.011-0.007l-0.009-0.007
									c-1.175-0.87-2.322-1.747-3.407-2.68c-0.27-0.236-0.537-0.471-0.79-0.73c-0.13-0.122-0.251-0.269-0.373-0.409
									c-0.059-0.088-0.116-0.168-0.172-0.266c-0.028-0.077-0.048-0.165-0.056-0.247c-0.007-0.079,0.01-0.101,0.014-0.154
									c0.126-0.711,0.309-1.365,0.491-2.023l0.027,0.199c-0.296-0.55-0.388-1.139-0.302-1.728
									c0.121-0.567,0.296-1.145,0.883-1.522c0.614-0.292,1.215-0.118,1.709,0.057c0.504,0.197,0.951,0.448,1.379,0.746
									l-0.029-0.018c1.93,1.021,3.829,2.01,5.688,2.936c0.926,0.449,1.863,0.934,2.759,1.261c0.928,0.247,1.938,0.329,2.889,0.396
									l-0.15,0.406c-3.829-2.963-7.397-5.723-10.573-8.181l-0.094-0.073l0.019-0.106c0.105-0.574,0.654-0.872,1.11-0.896
									c0.467-0.04,0.9,0.062,1.305,0.187c0.807,0.269,1.53,0.623,2.246,0.957c1.424,0.679,2.753,1.363,4.009,2.001
									c1.255,0.637,2.431,1.249,3.54,1.764c1.07,0.605,2.265,0.34,3.174-0.052l-0.065,0.092c0.367-2.639,0.654-4.699,0.853-6.131
									c0.098-0.669,0.174-1.19,0.23-1.571C139.958,178.352,139.988,178.177,139.995,178.185z"/>
							</g>
						</g>
					</g>
					<g>
						<g>
							<path style="fill:#EB996E;" d="M132.366,195.009c-0.023,0.062-0.819-0.155-2.057-0.642c-1.239-0.483-2.913-1.248-4.696-2.215
								c-1.783-0.97-3.335-1.957-4.416-2.732c-1.083-0.773-1.699-1.321-1.659-1.374c0.045-0.06,0.734,0.382,1.86,1.072
								c1.123,0.693,2.691,1.622,4.46,2.584c1.769,0.96,3.402,1.769,4.595,2.333C131.645,194.602,132.392,194.939,132.366,195.009z"
								/>
						</g>
					</g>
					<g>
						<g>
							<path style="fill:#EB996E;" d="M133.553,198.34c0.059,0.126-0.368,0.408-0.946,0.3c-0.578-0.106-0.876-0.522-0.776-0.618
								c0.096-0.109,0.443,0.042,0.869,0.114C133.124,198.22,133.502,198.204,133.553,198.34z"/>
						</g>
					</g>
					<g>
						<g>
							<path style="fill:#EB996E;" d="M135.99,195.168c0.122,0.074-0.219,0.64-0.954,0.743c-0.734,0.107-1.219-0.341-1.124-0.446
								c0.079-0.122,0.521,0.024,1.051-0.061C135.497,195.337,135.881,195.073,135.99,195.168z"/>
						</g>
					</g>
					<g>
						<g>
							<path style="fill:#EB996E;" d="M138.962,190.777c0.107,0.09-0.188,0.528-0.779,0.606c-0.592,0.079-0.99-0.268-0.91-0.383
								c0.07-0.127,0.431-0.064,0.843-0.126C138.53,190.827,138.862,190.672,138.962,190.777z"/>
						</g>
					</g>
					<g>
						<g>
							<path style="fill:#EB996E;" d="M141.628,186.21c0,0.144-0.692,0.259-1.539,0.359c-0.847,0.097-1.548,0.144-1.58,0.004
								c-0.033-0.136,0.641-0.412,1.521-0.513C140.91,185.957,141.629,186.071,141.628,186.21z"/>
						</g>
					</g>
				</g>
			</g>
		</g>
	</g>
</g>
</svg>
